<svg width="40" height="40" viewBox="0 0 40 40" fill="none" xmlns="http://www.w3.org/2000/svg">
<circle cx="20" cy="20" r="20" fill="#3CD856"/>
<path d="M30.125 14.8249L20.375 9.5749C20.15 9.4249 19.85 9.4249 19.7 9.5749L9.95 14.8249C9.65 14.9749 9.5 15.1999 9.5 15.4999V17.7499C9.5 18.1999 9.8 18.4999 10.25 18.4999H29.75C30.2 18.4999 30.5 18.1999 30.5 17.7499V15.4999C30.5 15.1999 30.35 14.9749 30.125 14.8249Z" fill="white"/>
<path d="M20.75 26C21.2 26 21.5 25.7 21.5 25.25V20C21.5 19.55 21.2 19.25 20.75 19.25H19.25C18.8 19.25 18.5 19.55 18.5 20V25.25C18.5 25.7 18.8 26 19.25 26H20.75Z" fill="white"/>
<path d="M26.75 26C27.2 26 27.5 25.7 27.5 25.25V20C27.5 19.55 27.2 19.25 26.75 19.25H25.25C24.8 19.25 24.5 19.55 24.5 20V25.25C24.5 25.7 24.8 26 25.25 26H26.75Z" fill="white"/>
<path d="M14.75 26C15.2 26 15.5 25.7 15.5 25.25V20C15.5 19.55 15.2 19.25 14.75 19.25H13.25C12.8 19.25 12.5 19.55 12.5 20V25.25C12.5 25.7 12.8 26 13.25 26H14.75Z" fill="white"/>
<path d="M29.75 26.75H10.25C9.8 26.75 9.5 27.05 9.5 27.5V29.75C9.5 30.2 9.8 30.5 10.25 30.5H29.75C30.2 30.5 30.5 30.2 30.5 29.75V27.5C30.5 27.05 30.2 26.75 29.75 26.75Z" fill="white"/>
</svg>
