<svg width="40" height="40" viewBox="0 0 40 40" fill="none" xmlns="http://www.w3.org/2000/svg">
<circle cx="20" cy="20" r="20" fill="#BF83FF"/>
<path d="M20 16C17.792 16 16 17.792 16 20C16 22.208 17.792 24 20 24C22.209 24 24 22.208 24 20C24 17.792 22.209 16 20 16ZM20.2 21.979V22.399H19.8V22C19.386 21.993 18.957 21.895 18.6 21.71L18.781 21.053C19.164 21.199 19.672 21.358 20.071 21.268C20.531 21.164 20.626 20.691 20.117 20.463C19.745 20.291 18.605 20.141 18.605 19.167C18.605 18.621 19.022 18.133 19.799 18.026V17.601H20.2V18.008C20.49 18.015 20.816 18.066 21.177 18.176L21.032 18.834C20.725 18.727 20.386 18.629 20.055 18.649C19.46 18.684 19.407 19.2 19.823 19.415C20.507 19.737 21.399 19.976 21.399 20.833C21.401 21.52 20.863 21.887 20.2 21.979ZM8 13V27H32V13H8ZM30 22.422C28.849 22.926 27.926 23.849 27.422 25H12.578C12.074 23.849 11.151 22.926 10 22.422V17.578C11.151 17.074 12.074 16.151 12.578 15H27.422C27.926 16.151 28.849 17.074 30 17.578V22.422Z" fill="white"/>
</svg>
