<svg width="10" height="10" viewBox="0 0 24 24" fill="none" xmlns="http://www.w3.org/2000/svg">
<path d="M3.31413 4.10331L11.8871 5.77973L20.46 7.45614C20.5361 7.47095 20.6149 7.45498 20.6791 7.41174C20.7434 7.3685 20.7878 7.30153 20.8028 7.22553C20.8508 6.98017 20.85 6.72777 20.8004 6.48272C20.7509 6.23768 20.6535 6.0048 20.514 5.79738C20.3744 5.58995 20.1953 5.41206 19.987 5.27385C19.7787 5.13564 19.5452 5.03983 19.2998 4.99188L16.4551 4.4356L16.6044 3.67181C16.7097 3.13031 16.5958 2.56916 16.2879 2.11148C15.9799 1.6538 15.503 1.33697 14.9617 1.23049L10.7526 0.407417C10.2111 0.302164 9.64995 0.416005 9.19227 0.723964C8.73459 1.03192 8.41776 1.50885 8.31128 2.05012L8.16192 2.8139L5.31717 2.25761C5.07182 2.2096 4.81941 2.2104 4.57437 2.25995C4.32932 2.3095 4.09644 2.40684 3.88901 2.54641C3.68159 2.68598 3.5037 2.86504 3.36549 3.07337C3.22728 3.2817 3.13147 3.51522 3.08352 3.76059C3.06871 3.83661 3.08468 3.9154 3.12792 3.97966C3.17116 4.04392 3.23813 4.08839 3.31413 4.10331ZM11.2651 1.84185L13.9466 2.36622C14.35 2.44508 14.7054 2.68094 14.9349 3.0219C15.1643 3.36285 15.2489 3.78099 15.17 4.1843L12.3085 3.62475L9.447 3.0652C9.48605 2.86549 9.56406 2.67544 9.67656 2.50588C9.78906 2.33632 9.93386 2.19058 10.1027 2.07698C10.2715 1.96339 10.4611 1.88415 10.6605 1.84381C10.8599 1.80346 11.0654 1.8028 11.2651 1.84185Z" fill="white"/>
<path d="M20.7315 8.88086H3.26085C3.1834 8.88092 3.10913 8.91171 3.05437 8.96648C2.9996 9.02124 2.96881 9.0955 2.96875 9.17296V10.2809C2.96875 10.4421 5.99552 21.7282 5.99552 21.7282C6.03915 22.2472 6.27611 22.7309 6.65946 23.0835C7.0428 23.436 7.54458 23.6318 8.0654 23.6319H15.9269C16.4478 23.6318 16.9495 23.436 17.3329 23.0835C17.7162 22.7309 17.9532 22.2472 17.9968 21.7282C17.9968 21.7282 21.0236 10.4421 21.0236 10.2809V9.17296C21.0235 9.0955 20.9927 9.02124 20.938 8.96647C20.8832 8.91171 20.8089 8.88092 20.7315 8.88086ZM9.11887 20.922C9.05676 20.9387 8.99197 20.9429 8.92821 20.9345C8.86444 20.9261 8.80297 20.9053 8.74729 20.8731C8.69162 20.8409 8.64284 20.798 8.60375 20.747C8.56466 20.6959 8.53603 20.6376 8.51949 20.5755C7.68655 17.4604 6.83953 14.2885 6.28537 12.1887C6.25224 12.0631 6.27033 11.9296 6.33566 11.8174C6.401 11.7052 6.50822 11.6236 6.63375 11.5905C6.75928 11.5573 6.89282 11.5754 7.00501 11.6407C7.11719 11.7061 7.19883 11.8133 7.23196 11.9388C7.78585 14.0373 8.63273 17.2084 9.46527 20.3226C9.48189 20.3847 9.48611 20.4495 9.4777 20.5132C9.46928 20.577 9.44839 20.6384 9.41622 20.6941C9.38405 20.7497 9.34124 20.7985 9.29021 20.8376C9.23919 20.8767 9.18097 20.9054 9.11887 20.922ZM12.4851 20.449C12.4848 20.5787 12.4331 20.703 12.3414 20.7946C12.2496 20.8862 12.1252 20.9376 11.9955 20.9376C11.8659 20.9376 11.7415 20.8862 11.6497 20.7946C11.5579 20.703 11.5062 20.5787 11.506 20.449V12.0637C11.5062 11.9341 11.5579 11.8098 11.6497 11.7182C11.7415 11.6266 11.8659 11.5751 11.9955 11.5751C12.1252 11.5751 12.2496 11.6266 12.3414 11.7182C12.4331 11.8098 12.4848 11.9341 12.4851 12.0637V20.449ZM17.7069 12.1887C17.1278 14.3835 16.2088 17.8236 15.4728 20.5755C15.4562 20.6377 15.4276 20.6959 15.3885 20.747C15.3493 20.798 15.3006 20.8409 15.2449 20.8731C15.1892 20.9053 15.1278 20.9262 15.064 20.9346C15.0003 20.943 14.9355 20.9388 14.8733 20.9222C14.8112 20.9056 14.753 20.8769 14.702 20.8378C14.6509 20.7986 14.6081 20.7498 14.5759 20.6941C14.5438 20.6385 14.5229 20.577 14.5145 20.5132C14.5061 20.4495 14.5104 20.3847 14.527 20.3226C15.2627 17.5714 16.1814 14.1323 16.7603 11.9388C16.7767 11.8767 16.8052 11.8184 16.8442 11.7672C16.8831 11.7161 16.9317 11.6731 16.9873 11.6408C17.0428 11.6084 17.1042 11.5873 17.1679 11.5787C17.2316 11.5701 17.2964 11.5741 17.3585 11.5905C17.4207 11.6069 17.479 11.6353 17.5302 11.6743C17.5813 11.7132 17.6243 11.7619 17.6566 11.8174C17.689 11.873 17.7101 11.9343 17.7187 11.998C17.7273 12.0617 17.7233 12.1265 17.7069 12.1887Z" fill="white"/>
</svg>
