<svg width="24" height="24" viewBox="0 0 24 24" fill="none" xmlns="http://www.w3.org/2000/svg">
<path d="M19.6933 2H4.70125C4.60916 2 4.51797 2.01814 4.43289 2.05338C4.34781 2.08862 4.27051 2.14027 4.20539 2.20539C4.14027 2.27051 4.08862 2.34781 4.05338 2.43289C4.01814 2.51797 4 2.60916 4 2.70125V21.2987C4 21.4374 4.04113 21.573 4.11819 21.6883C4.19524 21.8037 4.30476 21.8935 4.43289 21.9466C4.56103 21.9997 4.70203 22.0136 4.83806 21.9865C4.97408 21.9595 5.09904 21.8927 5.19711 21.7946L6.57526 20.4165L7.95341 21.7946C8.08492 21.9261 8.26328 22 8.44926 22C8.63524 22 8.81361 21.9261 8.94512 21.7946L10.3233 20.4165L11.7014 21.7946C11.8329 21.9261 12.0113 22 12.1973 22C12.3833 22 12.5616 21.9261 12.6931 21.7946L14.0713 20.4165L15.4494 21.7946C15.5809 21.9261 15.7593 22 15.9453 22C16.1313 22 16.3096 21.9261 16.4412 21.7946L17.8193 20.4165L19.1974 21.7946C19.2955 21.8927 19.4204 21.9595 19.5565 21.9865C19.6925 22.0136 19.8335 21.9997 19.9616 21.9466C20.0898 21.8935 20.1993 21.8037 20.2763 21.6883C20.3534 21.573 20.3945 21.4374 20.3945 21.2987V2.70125C20.3945 2.60916 20.3764 2.51797 20.3412 2.43289C20.3059 2.34781 20.2543 2.27051 20.1891 2.20539C20.124 2.14027 20.0467 2.08862 19.9616 2.05338C19.8765 2.01814 19.7854 2 19.6933 2ZM18.992 19.6058L18.3151 18.9289C18.25 18.8638 18.1727 18.8121 18.0876 18.7769C18.0025 18.7416 17.9113 18.7235 17.8193 18.7235C17.7272 18.7235 17.636 18.7416 17.5509 18.7769C17.4658 18.8121 17.3885 18.8638 17.3234 18.9289L15.9453 20.307L14.5671 18.9289C14.502 18.8638 14.4247 18.8121 14.3396 18.7769C14.2545 18.7416 14.1634 18.7235 14.0713 18.7235C13.9792 18.7235 13.888 18.7416 13.8029 18.7769C13.7178 18.8121 13.6405 18.8638 13.5754 18.9289L12.1973 20.307L10.8191 18.9289C10.754 18.8638 10.6767 18.8121 10.5916 18.7769C10.5065 18.7416 10.4154 18.7235 10.3233 18.7235C10.2312 18.7235 10.14 18.7416 10.0549 18.7769C9.96983 18.8121 9.89252 18.8638 9.82741 18.9289L8.44926 20.307L7.07111 18.9289C7.006 18.8638 6.92869 18.8121 6.84361 18.7769C6.75853 18.7416 6.66734 18.7235 6.57525 18.7235C6.48316 18.7235 6.39198 18.7416 6.3069 18.7769C6.22182 18.8121 6.14451 18.8638 6.0794 18.9289L5.4025 19.6058V3.40251H18.992L18.992 19.6058Z" fill="white"/>
<path d="M19.6564 3.13672H5.05469L5.13581 20.3342H19.6564V3.13672Z" fill="white"/>
<path d="M7.96868 7.49985H14.917C15.064 7.49985 15.2051 7.44142 15.3091 7.33741C15.4131 7.2334 15.4716 7.09233 15.4716 6.94524C15.4716 6.79815 15.4131 6.65708 15.3091 6.55307C15.2051 6.44906 15.064 6.39062 14.917 6.39062H7.96868C7.82158 6.39062 7.68052 6.44906 7.57651 6.55307C7.47249 6.65708 7.41406 6.79815 7.41406 6.94524C7.41406 7.09233 7.47249 7.2334 7.57651 7.33741C7.68052 7.44142 7.82158 7.49985 7.96868 7.49985Z" fill="#FF947A"/>
<path d="M7.96868 10.2479H14.917C15.064 10.2479 15.2051 10.1895 15.3091 10.0855C15.4131 9.98145 15.4716 9.84038 15.4716 9.69329C15.4716 9.54619 15.4131 9.40513 15.3091 9.30111C15.2051 9.1971 15.064 9.13867 14.917 9.13867H7.96868C7.82158 9.13867 7.68052 9.1971 7.57651 9.30111C7.47249 9.40513 7.41406 9.54619 7.41406 9.69329C7.41406 9.84038 7.47249 9.98145 7.57651 10.0855C7.68052 10.1895 7.82158 10.2479 7.96868 10.2479Z" fill="#FF947A"/>
<path d="M7.96868 12.994H11.5239C11.671 12.994 11.8121 12.9356 11.9161 12.8316C12.0201 12.7275 12.0786 12.5865 12.0786 12.4394C12.0786 12.2923 12.0201 12.1512 11.9161 12.0472C11.8121 11.9432 11.671 11.8848 11.5239 11.8848H7.96868C7.82158 11.8848 7.68052 11.9432 7.57651 12.0472C7.4725 12.1512 7.41406 12.2923 7.41406 12.4394C7.41406 12.5865 7.4725 12.7275 7.57651 12.8316C7.68052 12.9356 7.82158 12.994 7.96868 12.994Z" fill="#FF947A"/>
<path d="M15.1574 12.2207V12.8837C14.9946 12.9106 14.8371 12.9635 14.6909 13.0402C14.5682 13.1051 14.4596 13.1938 14.3717 13.3011C14.2904 13.4023 14.229 13.5179 14.1906 13.6418C14.1515 13.7681 14.1318 13.8995 14.1322 14.0317C14.1264 14.1777 14.1547 14.3232 14.2149 14.4564C14.2751 14.5896 14.3656 14.7069 14.4791 14.799C14.5858 14.8865 14.7034 14.9597 14.829 15.0169C14.958 15.0763 15.0899 15.1305 15.225 15.1796C15.3641 15.2288 15.4868 15.2748 15.5933 15.3177C15.6852 15.3534 15.7736 15.3976 15.8573 15.4497C15.9202 15.4885 15.9745 15.5396 16.0169 15.6001C16.0549 15.6596 16.0741 15.7291 16.0721 15.7997C16.0746 15.855 16.0633 15.91 16.0392 15.9599C16.0151 16.0097 15.9789 16.0528 15.934 16.0851C15.7765 16.1676 15.5985 16.2028 15.4214 16.1864C15.2086 16.1876 14.9968 16.1586 14.7922 16.1005C14.6162 16.0517 14.4448 15.988 14.2796 15.9102L14.0156 16.6161C14.1506 16.6798 14.289 16.7361 14.43 16.7849C14.6655 16.8622 14.91 16.9086 15.1574 16.9231V17.6536H15.9309V16.9046C16.1074 16.8797 16.2785 16.8258 16.4374 16.7451C16.5647 16.6792 16.6782 16.5897 16.772 16.4812C16.8554 16.3835 16.9181 16.2697 16.9561 16.1469C16.9926 16.0286 17.0112 15.9056 17.0114 15.7818C17.0149 15.6192 16.9824 15.4579 16.9162 15.3093C16.8532 15.175 16.7634 15.0549 16.6523 14.9565C16.5313 14.8507 16.3972 14.7609 16.2532 14.6894C16.0909 14.6076 15.9239 14.5357 15.7529 14.474C15.6342 14.433 15.5329 14.395 15.449 14.3602C15.3754 14.3306 15.3046 14.2946 15.2373 14.2526C15.1856 14.2216 15.1424 14.1784 15.1114 14.1268C15.0836 14.075 15.0698 14.0168 15.0715 13.958C15.0704 13.9078 15.0816 13.858 15.104 13.8131C15.1265 13.7682 15.1596 13.7294 15.2004 13.7001C15.3279 13.6239 15.476 13.5896 15.624 13.6019C15.8129 13.6011 16.0014 13.6217 16.1857 13.6633C16.3462 13.6987 16.5033 13.748 16.6553 13.8106L16.8456 13.074C16.7273 13.0235 16.6052 12.9824 16.4804 12.9512C16.3 12.9058 16.1163 12.875 15.9309 12.8591V12.2207H15.1574Z" fill="#FF947A"/>
</svg>
