<svg width="24" height="24" viewBox="0 0 24 24" fill="none" xmlns="http://www.w3.org/2000/svg">
<g clip-path="url(#clip0_1128_19582)">
<path fill-rule="evenodd" clip-rule="evenodd" d="M17.8278 18.4604H6.15817C5.24429 18.4604 4.49912 17.7152 4.49912 16.8013V7.1985C4.49912 6.28462 5.24429 5.52539 6.15817 5.52539H17.8278C18.7557 5.52539 19.5009 6.28462 19.5009 7.1985V16.8013C19.5009 17.7152 18.7557 18.4604 17.8278 18.4604ZM22.6081 14.3268H22.1301V9.65896H22.6081C23.3814 9.65896 24 10.2916 24 11.0509V12.9489C24 13.7082 23.3814 14.3268 22.6081 14.3268ZM1.86995 14.3268H1.37786C0.618629 14.3268 0 13.7082 0 12.9489V11.0509C0 10.2916 0.618629 9.65896 1.39192 9.65896H1.86995V14.3268ZM20.3585 17.1247H19.8805V6.86107H20.3585C21.1318 6.86107 21.7504 7.49376 21.7504 8.25298V15.7468C21.7504 16.5061 21.1318 17.1247 20.3585 17.1247ZM4.11951 17.1247H3.62742C2.86819 17.1247 2.24956 16.5061 2.24956 15.7468V8.25298C2.24956 7.49376 2.86819 6.86107 3.62742 6.86107H4.11951V17.1247ZM11.993 16.6888C16.1968 16.6888 18.2355 11.5851 15.3111 8.68884C12.3726 5.75035 7.31107 7.81713 7.31107 11.9929C7.31107 13.2583 7.81722 14.4393 8.68893 15.311C8.70299 15.311 9.88401 16.6888 11.993 16.6888ZM11.993 7.69059C12.6819 7.69059 13.3568 7.84525 13.9473 8.15456L8.15466 13.9472C6.72056 11.1071 8.75923 7.69059 11.993 7.69059ZM14.2847 8.33734C14.833 8.68884 15.3111 9.16687 15.6485 9.7152L9.71529 15.6484C9.16696 15.311 8.68893 14.8329 8.33743 14.2846L14.2847 8.33734ZM15.8453 10.0526C17.2794 12.8786 15.2408 16.3092 11.993 16.3092C11.3181 16.3092 10.6432 16.1405 10.0527 15.8453L15.8453 10.0526Z" fill="white"/>
</g>
<defs>
<clipPath id="clip0_1128_19582">
<rect width="24" height="24" fill="white"/>
</clipPath>
</defs>
</svg>
