<svg width="24" height="24" viewBox="0 0 24 24" fill="none" xmlns="http://www.w3.org/2000/svg">
<path d="M19.6933 2H4.70125C4.60916 2 4.51797 2.01814 4.43289 2.05338C4.34781 2.08862 4.27051 2.14027 4.20539 2.20539C4.14027 2.27051 4.08862 2.34781 4.05338 2.43289C4.01814 2.51797 4 2.60916 4 2.70125V21.2987C4 21.4374 4.04113 21.573 4.11819 21.6883C4.19524 21.8037 4.30476 21.8935 4.43289 21.9466C4.56103 21.9997 4.70203 22.0136 4.83806 21.9865C4.97408 21.9595 5.09904 21.8927 5.19711 21.7946L6.57526 20.4165L7.95341 21.7946C8.08492 21.9261 8.26328 22 8.44926 22C8.63524 22 8.81361 21.9261 8.94512 21.7946L10.3233 20.4165L11.7014 21.7946C11.8329 21.9261 12.0113 22 12.1973 22C12.3833 22 12.5616 21.9261 12.6931 21.7946L14.0713 20.4165L15.4494 21.7946C15.5809 21.9261 15.7593 22 15.9453 22C16.1313 22 16.3096 21.9261 16.4412 21.7946L17.8193 20.4165L19.1974 21.7946C19.2955 21.8927 19.4204 21.9595 19.5565 21.9865C19.6925 22.0136 19.8335 21.9997 19.9616 21.9466C20.0898 21.8935 20.1993 21.8037 20.2763 21.6883C20.3534 21.573 20.3945 21.4374 20.3945 21.2987V2.70125C20.3945 2.60916 20.3764 2.51797 20.3412 2.43289C20.3059 2.34781 20.2543 2.27051 20.1891 2.20539C20.124 2.14027 20.0467 2.08862 19.9616 2.05338C19.8765 2.01814 19.7854 2 19.6933 2ZM18.992 19.6058L18.3151 18.9289C18.25 18.8638 18.1727 18.8121 18.0876 18.7769C18.0025 18.7416 17.9113 18.7235 17.8193 18.7235C17.7272 18.7235 17.636 18.7416 17.5509 18.7769C17.4658 18.8121 17.3885 18.8638 17.3234 18.9289L15.9453 20.307L14.5671 18.9289C14.502 18.8638 14.4247 18.8121 14.3396 18.7769C14.2545 18.7416 14.1634 18.7235 14.0713 18.7235C13.9792 18.7235 13.888 18.7416 13.8029 18.7769C13.7178 18.8121 13.6405 18.8638 13.5754 18.9289L12.1973 20.307L10.8191 18.9289C10.754 18.8638 10.6767 18.8121 10.5916 18.7769C10.5065 18.7416 10.4154 18.7235 10.3233 18.7235C10.2312 18.7235 10.14 18.7416 10.0549 18.7769C9.96983 18.8121 9.89252 18.8638 9.82741 18.9289L8.44926 20.307L7.07111 18.9289C7.006 18.8638 6.92869 18.8121 6.84361 18.7769C6.75853 18.7416 6.66734 18.7235 6.57525 18.7235C6.48316 18.7235 6.39198 18.7416 6.3069 18.7769C6.22182 18.8121 6.14451 18.8638 6.0794 18.9289L5.4025 19.6058V3.40251H18.992L18.992 19.6058Z" fill="white"/>
<path d="M19.6561 3.13672H5.05444L5.13556 20.3342H19.6561V3.13672Z" fill="white"/>
<path d="M7.9699 7.49985H14.9182C15.0653 7.49985 15.2063 7.44142 15.3103 7.33741C15.4144 7.2334 15.4728 7.09233 15.4728 6.94524C15.4728 6.79815 15.4144 6.65708 15.3103 6.55307C15.2063 6.44906 15.0653 6.39062 14.9182 6.39062H7.9699C7.82281 6.39062 7.68174 6.44906 7.57773 6.55307C7.47372 6.65708 7.41528 6.79815 7.41528 6.94524C7.41528 7.09233 7.47372 7.2334 7.57773 7.33741C7.68174 7.44142 7.82281 7.49985 7.9699 7.49985Z" fill="#FF947A"/>
<path d="M7.9699 10.2479H14.9182C15.0653 10.2479 15.2063 10.1895 15.3103 10.0855C15.4144 9.98145 15.4728 9.84038 15.4728 9.69329C15.4728 9.54619 15.4144 9.40513 15.3103 9.30111C15.2063 9.1971 15.0653 9.13867 14.9182 9.13867H7.9699C7.82281 9.13867 7.68174 9.1971 7.57773 9.30111C7.47372 9.40513 7.41528 9.54619 7.41528 9.69329C7.41528 9.84038 7.47372 9.98145 7.57773 10.0855C7.68174 10.1895 7.82281 10.2479 7.9699 10.2479Z" fill="#FF947A"/>
<path d="M7.9699 12.994H11.5252C11.6723 12.994 11.8133 12.9356 11.9173 12.8316C12.0213 12.7275 12.0798 12.5865 12.0798 12.4394C12.0798 12.2923 12.0213 12.1512 11.9173 12.0472C11.8133 11.9432 11.6723 11.8848 11.5252 11.8848H7.9699C7.8228 11.8848 7.68174 11.9432 7.57773 12.0472C7.47372 12.1512 7.41528 12.2923 7.41528 12.4394C7.41528 12.5865 7.47372 12.7275 7.57773 12.8316C7.68174 12.9356 7.8228 12.994 7.9699 12.994Z" fill="#FF947A"/>
<path d="M15.1584 12.2207V12.8837C14.9955 12.9106 14.838 12.9635 14.6919 13.0402C14.5692 13.1051 14.4606 13.1938 14.3726 13.3011C14.2914 13.4023 14.2299 13.5179 14.1915 13.6418C14.1524 13.7681 14.1328 13.8995 14.1332 14.0317C14.1274 14.1777 14.1557 14.3232 14.2159 14.4564C14.2761 14.5896 14.3666 14.7069 14.4801 14.799C14.5868 14.8865 14.7044 14.9597 14.83 15.0169C14.9589 15.0763 15.0909 15.1305 15.2259 15.1796C15.365 15.2288 15.4878 15.2748 15.5943 15.3177C15.6862 15.3534 15.7746 15.3976 15.8583 15.4497C15.9212 15.4885 15.9755 15.5396 16.0179 15.6001C16.0559 15.6596 16.0751 15.7291 16.0731 15.7997C16.0756 15.855 16.0643 15.91 16.0402 15.9599C16.016 16.0097 15.9799 16.0528 15.935 16.0851C15.7775 16.1676 15.5994 16.2028 15.4224 16.1864C15.2096 16.1876 14.9978 16.1586 14.7931 16.1005C14.6172 16.0517 14.4457 15.988 14.2806 15.9102L14.0166 16.6161C14.1516 16.6798 14.2899 16.7361 14.431 16.7849C14.6665 16.8622 14.911 16.9086 15.1584 16.9231V17.6536H15.9319V16.9046C16.1083 16.8797 16.2795 16.8258 16.4384 16.7451C16.5657 16.6792 16.6792 16.5897 16.7729 16.4812C16.8564 16.3835 16.9191 16.2697 16.9571 16.1469C16.9936 16.0286 17.0122 15.9056 17.0124 15.7818C17.0159 15.6192 16.9834 15.4579 16.9172 15.3093C16.8542 15.175 16.7643 15.0549 16.6532 14.9565C16.5323 14.8507 16.3982 14.7609 16.2542 14.6894C16.0919 14.6076 15.9248 14.5357 15.7539 14.474C15.6352 14.433 15.5339 14.395 15.45 14.3602C15.3764 14.3306 15.3055 14.2946 15.2382 14.2526C15.1866 14.2216 15.1434 14.1784 15.1124 14.1268C15.0846 14.075 15.0708 14.0168 15.0725 13.958C15.0714 13.9078 15.0826 13.858 15.105 13.8131C15.1275 13.7682 15.1606 13.7294 15.2014 13.7001C15.3288 13.6239 15.477 13.5896 15.625 13.6019C15.8139 13.6011 16.0023 13.6217 16.1867 13.6633C16.3472 13.6987 16.5043 13.748 16.6563 13.8106L16.8466 13.074C16.7283 13.0235 16.6062 12.9824 16.4814 12.9512C16.301 12.9058 16.1172 12.875 15.9319 12.8591V12.2207H15.1584Z" fill="#FF947A"/>
</svg>
