<svg width="16" height="16" viewBox="0 0 16 16" fill="none" xmlns="http://www.w3.org/2000/svg">
<circle cx="8" cy="8" r="8" fill="#698DE9"/>
<path fill-rule="evenodd" clip-rule="evenodd" d="M7.65733 3.55208C7.65733 3.36799 7.80657 3.21875 7.99067 3.21875C10.6294 3.21875 12.7684 5.35783 12.7684 7.99653C12.7684 10.6352 10.6294 12.7743 7.99067 12.7743C5.35197 12.7743 3.21289 10.6352 3.21289 7.99653C3.21289 7.81243 3.36213 7.66319 3.54622 7.66319C3.73032 7.66319 3.87956 7.81243 3.87956 7.99653C3.87956 10.267 5.72016 12.1076 7.99067 12.1076C10.2612 12.1076 12.1018 10.267 12.1018 7.99653C12.1018 5.72602 10.2612 3.88542 7.99067 3.88542C7.80657 3.88542 7.65733 3.73618 7.65733 3.55208ZM7.99067 6.32986C8.17476 6.32986 8.324 6.4791 8.324 6.66319V8.10764H9.76845C9.95254 8.10764 10.1018 8.25688 10.1018 8.44097C10.1018 8.62507 9.95254 8.7743 9.76845 8.7743H7.99067C7.80657 8.7743 7.65733 8.62507 7.65733 8.44097V6.66319C7.65733 6.4791 7.80657 6.32986 7.99067 6.32986Z" fill="white"/>
<path fill-rule="evenodd" clip-rule="evenodd" d="M6.70159 3.72877C6.76789 3.90051 6.68241 4.09348 6.51066 4.15978C6.4478 4.18404 6.38569 4.20981 6.32436 4.23704C6.1561 4.31173 5.95914 4.23589 5.88444 4.06763C5.80975 3.89937 5.88559 3.70241 6.05385 3.62771C6.12519 3.59605 6.19745 3.56607 6.27058 3.53784C6.44232 3.47154 6.63529 3.55702 6.70159 3.72877ZM5.16743 4.54776C5.29439 4.68107 5.28924 4.89206 5.15593 5.01902C5.10719 5.06544 5.05958 5.11304 5.01316 5.16179C4.8862 5.2951 4.67521 5.30025 4.5419 5.17328C4.40859 5.04632 4.40344 4.83533 4.5304 4.70202C4.5843 4.64543 4.63957 4.59016 4.69616 4.53626C4.82947 4.4093 5.04046 4.41445 5.16743 4.54776ZM4.06177 5.8903C4.23003 5.965 4.30587 6.16196 4.23118 6.33022C4.20395 6.39155 4.17818 6.45366 4.15392 6.51652C4.08762 6.68827 3.89465 6.77375 3.72291 6.70745C3.55116 6.64115 3.46568 6.44818 3.53198 6.27644C3.56021 6.20331 3.59019 6.13105 3.62186 6.05971C3.69655 5.89145 3.89351 5.81561 4.06177 5.8903Z" fill="white"/>
</svg>
