<svg width="16" height="16" viewBox="0 0 16 16" fill="none" xmlns="http://www.w3.org/2000/svg">
<circle cx="8" cy="8" r="8" fill="#2EAF2B"/>
<path fill-rule="evenodd" clip-rule="evenodd" d="M5.88611 4.11151C5.93961 3.60965 6.36437 3.21875 6.88043 3.21875H9.10265C9.6187 3.21875 10.0435 3.60965 10.097 4.11151C10.4361 4.11841 10.7294 4.13596 10.9798 4.18195C11.3167 4.24383 11.6034 4.36172 11.8367 4.59502C12.1042 4.86254 12.2193 5.19937 12.2731 5.59942C12.3249 5.98474 12.3249 6.47466 12.3249 7.08248V9.79792C12.3249 10.4057 12.3249 10.8957 12.2731 11.281C12.2193 11.681 12.1042 12.0179 11.8367 12.2854C11.5692 12.5529 11.2324 12.668 10.8323 12.7217C10.447 12.7735 9.95707 12.7735 9.34926 12.7735H6.63382C6.026 12.7735 5.53608 12.7735 5.15076 12.7217C4.75071 12.668 4.41388 12.5529 4.14636 12.2854C3.87884 12.0179 3.76378 11.681 3.70999 11.281C3.65819 10.8957 3.65819 10.4057 3.6582 9.79792V7.08248C3.65819 6.47466 3.65819 5.98474 3.70999 5.59942C3.76378 5.19937 3.87884 4.86254 4.14636 4.59502C4.37966 4.36172 4.66636 4.24383 5.00325 4.18195C5.25366 4.13596 5.54693 4.11841 5.88611 4.11151ZM5.88699 4.77836C5.56784 4.78518 5.3219 4.80124 5.12369 4.83765C4.87178 4.88392 4.72597 4.95822 4.61776 5.06643C4.49476 5.18943 4.41456 5.36213 4.37071 5.68825C4.32558 6.02396 4.32487 6.4689 4.32487 7.10687V9.77353C4.32487 10.4115 4.32558 10.8564 4.37071 11.1921C4.41456 11.5183 4.49476 11.691 4.61776 11.814C4.74077 11.937 4.91347 12.0172 5.23959 12.061C5.5753 12.1062 6.02024 12.1069 6.6582 12.1069H9.32487C9.96283 12.1069 10.4078 12.1062 10.7435 12.061C11.0696 12.0172 11.2423 11.937 11.3653 11.814C11.4883 11.691 11.5685 11.5183 11.6124 11.1921C11.6575 10.8564 11.6582 10.4115 11.6582 9.77353V7.10687C11.6582 6.4689 11.6575 6.02396 11.6124 5.68825C11.5685 5.36213 11.4883 5.18943 11.3653 5.06643C11.2571 4.95822 11.1113 4.88392 10.8594 4.83765C10.6612 4.80124 10.4152 4.78518 10.0961 4.77836C10.039 5.2764 9.61598 5.66319 9.10265 5.66319H6.88043C6.36709 5.66319 5.9441 5.2764 5.88699 4.77836ZM6.88043 3.88542C6.69633 3.88542 6.54709 4.03465 6.54709 4.21875V4.66319C6.54709 4.84729 6.69633 4.99653 6.88043 4.99653H9.10265C9.28674 4.99653 9.43598 4.84729 9.43598 4.66319V4.21875C9.43598 4.03465 9.28674 3.88542 9.10265 3.88542H6.88043ZM9.56855 7.32464C9.69417 7.45923 9.68689 7.67016 9.55231 7.79577L7.64755 9.57354C7.51948 9.69308 7.32074 9.69308 7.19267 9.57354L6.43076 8.86243C6.29618 8.73682 6.28891 8.52589 6.41452 8.39131C6.54013 8.25673 6.75106 8.24945 6.88564 8.37506L7.42011 8.8739L9.09743 7.3084C9.23201 7.18279 9.44294 7.19006 9.56855 7.32464Z" fill="white"/>
</svg>
