<svg width="24" height="24" viewBox="0 0 24 24" fill="none" xmlns="http://www.w3.org/2000/svg">
<path d="M22.3022 4.69185L17.7488 5.0832C17.7258 5.08518 17.7038 5.09377 17.6856 5.10794C17.6674 5.12211 17.6536 5.14125 17.646 5.16306C17.6384 5.18487 17.6373 5.20841 17.6428 5.23084C17.6483 5.25327 17.6601 5.27364 17.6769 5.28948L18.8255 6.37279L18.5706 6.63303L18.4004 6.80666L17.5368 7.70322C17.204 8.05396 16.8726 8.40553 16.5425 8.75794C16.306 9.01139 16.0708 9.26634 15.837 9.52278C15.2772 10.1355 14.7246 10.7551 14.1791 11.3818C13.9077 11.6961 13.6373 12.0119 13.3708 12.3312C13.3 12.416 13.2301 12.5018 13.1598 12.5871L12.8749 12.427L8.43002 9.92839L7.72055 9.52976L7.21215 10.0836L6.57603 10.7766L1.56787 16.2318L2.6196 17.2575L8.03837 12.0283H8.03887L11.211 14.0919L12.833 15.1471L13.4212 15.5298L13.5559 15.6171L14.3213 14.9465C14.6346 14.6716 14.9431 14.3922 15.2468 14.1084C15.5516 13.825 15.852 13.5381 16.1513 13.2502C16.749 12.673 17.3379 12.0877 17.918 11.4945C18.5007 10.9033 19.0725 10.3016 19.6428 9.69889L20.4914 8.78786L20.6062 8.66264L20.9062 8.33516L22.003 9.36951C22.0196 9.38518 22.0403 9.39578 22.0628 9.40003C22.0853 9.40428 22.1085 9.40201 22.1297 9.39349C22.1509 9.38498 22.1692 9.37057 22.1825 9.35197C22.1957 9.33337 22.2034 9.31135 22.2046 9.28853L22.4319 4.81714C22.4328 4.80007 22.43 4.78301 22.4237 4.76712C22.4174 4.75122 22.4078 4.73685 22.3955 4.72498C22.3832 4.71311 22.3685 4.70401 22.3524 4.6983C22.3363 4.69258 22.3192 4.69038 22.3022 4.69185Z" fill="white"/>
<path d="M2.64258 23.263C2.64273 23.3668 2.68402 23.4663 2.75739 23.5397C2.83077 23.613 2.93025 23.6543 3.03402 23.6545H5.74742C5.85119 23.6543 5.95066 23.613 6.02404 23.5397C6.09742 23.4663 6.13871 23.3668 6.13886 23.263V15.3457L2.64258 18.7197V23.263Z" fill="white"/>
<path d="M7.49097 14.0406V23.263C7.49112 23.3668 7.53241 23.4663 7.60578 23.5397C7.67916 23.613 7.77864 23.6543 7.88241 23.6545H10.5958C10.6996 23.6543 10.7991 23.613 10.8724 23.5397C10.9458 23.4663 10.9871 23.3668 10.9872 23.263V15.2203L8.16842 13.3867L7.49097 14.0406Z" fill="white"/>
<path d="M13.6527 16.9527L12.3396 16.1V23.2634C12.3398 23.3671 12.381 23.4666 12.4544 23.54C12.5278 23.6134 12.6273 23.6547 12.731 23.6548H15.4444C15.5482 23.6547 15.6477 23.6134 15.7211 23.54C15.7944 23.4666 15.8357 23.3671 15.8359 23.2634V15.0195C15.5752 15.2611 15.3025 15.5066 15.0254 15.7499L13.6527 16.9527Z" fill="white"/>
<path d="M18.6781 12.2434C18.1408 12.7905 17.6497 13.2802 17.188 13.7308V23.262C17.1881 23.3657 17.2294 23.4652 17.3028 23.5386C17.3762 23.612 17.4757 23.6533 17.5794 23.6534H20.2928C20.3966 23.6533 20.4961 23.612 20.5694 23.5386C20.6428 23.4652 20.6841 23.3657 20.6843 23.262V10.1465L20.4183 10.4321C19.8671 11.0143 19.2791 11.634 18.6781 12.2434Z" fill="white"/>
<path d="M13.548 7.42875C13.3799 7.55198 13.0667 7.61385 12.6085 7.61436C12.2186 7.61638 11.8304 7.56337 11.4553 7.45689C11.1328 7.36737 10.8185 7.25056 10.5158 7.10772L10.032 8.4017C10.2796 8.51841 10.5333 8.62177 10.7919 8.71132C11.2234 8.85311 11.6714 8.93826 12.1247 8.96463V10.3035H13.5427V8.93042C13.866 8.88451 14.1795 8.78582 14.4708 8.63829C14.7042 8.51767 14.9123 8.35344 15.0839 8.15447C15.2368 7.97535 15.3517 7.76701 15.4217 7.5421C15.4886 7.32525 15.5227 7.0996 15.5228 6.87266C15.5296 6.57476 15.4701 6.27908 15.3486 6.00697C15.2334 5.76058 15.0687 5.54049 14.8648 5.36036C14.6432 5.16629 14.3975 5.00163 14.1338 4.87046C13.8362 4.7205 13.5298 4.58865 13.2163 4.47565C12.9988 4.40033 12.8132 4.33085 12.6595 4.26721C12.5246 4.21306 12.3948 4.14713 12.2715 4.07019C12.1771 4.0132 12.098 3.93409 12.041 3.83969C11.9896 3.74477 11.9642 3.63798 11.9672 3.53008C11.9654 3.43805 11.9859 3.34694 12.0271 3.26463C12.0684 3.18232 12.129 3.11129 12.2038 3.05767C12.4374 2.91762 12.7091 2.85455 12.9805 2.87738C13.3268 2.87576 13.6721 2.91353 14.0098 2.98997C14.3038 3.05493 14.5917 3.14529 14.8701 3.26002L15.2193 1.90974C15.0024 1.81732 14.7786 1.74203 14.5499 1.68457C14.2192 1.60159 13.8824 1.54511 13.5427 1.51569V0.345703H12.1247V1.56134C11.8262 1.61052 11.5375 1.70735 11.2697 1.84812C11.0512 1.96164 10.8576 2.1176 10.7002 2.30688C10.5428 2.49615 10.4248 2.71493 10.353 2.9504C10.2812 3.18167 10.245 3.42254 10.2458 3.66472C10.2354 3.93243 10.2874 4.19889 10.3978 4.44301C10.5082 4.68714 10.6739 4.90223 10.8817 5.07129C11.0775 5.23131 11.293 5.36553 11.523 5.47066C11.7596 5.57944 12.0015 5.67884 12.2487 5.76886C12.5036 5.85939 12.7287 5.94307 12.9242 6.02218C13.0927 6.08763 13.2546 6.16862 13.4081 6.26409C13.523 6.33524 13.6224 6.42892 13.7002 6.53948C13.7699 6.6485 13.8052 6.77601 13.8014 6.90538C13.8059 7.00679 13.7851 7.10774 13.7409 7.19912C13.6967 7.29049 13.6304 7.36941 13.548 7.42875Z" fill="white"/>
</svg>
