<svg width="40" height="40" viewBox="0 0 40 40" fill="none" xmlns="http://www.w3.org/2000/svg">
<g clip-path="url(#clip0_1166_69659)">
<path fill-rule="evenodd" clip-rule="evenodd" d="M20 0C31.0457 0 40 8.95427 40 20C40 31.0457 31.0457 40 20 40C8.95427 40 0 31.0457 0 20C0 8.95427 8.95427 0 20 0Z" fill="#FF947A"/>
<mask id="mask0_1166_69659" style="mask-type:luminance" maskUnits="userSpaceOnUse" x="0" y="0" width="40" height="40">
<path fill-rule="evenodd" clip-rule="evenodd" d="M20 0C31.0457 0 40 8.95427 40 20C40 31.0457 31.0457 40 20 40C8.95427 40 0 31.0457 0 20C0 8.95427 8.95427 0 20 0Z" fill="white"/>
</mask>
<g mask="url(#mask0_1166_69659)">
<path fill-rule="evenodd" clip-rule="evenodd" d="M29.6189 13.2769L80.1025 63.7605H60.8624L10.3789 13.2769H29.6189Z" fill="#FF947A"/>
<path fill-rule="evenodd" clip-rule="evenodd" d="M24.5619 15.3696L75.0455 65.8534L74.9993 65.9311L74.9505 66.0071L74.8993 66.0814L74.8457 66.1538L74.7897 66.2244L74.7315 66.2931L74.6711 66.3598L74.6085 66.4244L24.125 15.9407L24.1875 15.8762L24.2479 15.8094L24.3061 15.7407L24.3621 15.6702L24.4157 15.5978L24.4669 15.5235L24.5157 15.4474L24.5619 15.3696Z" fill="#FF947A"/>
<path fill-rule="evenodd" clip-rule="evenodd" d="M25.0002 15.941L75.4836 66.4247L75.4211 66.3601L24.9375 15.8765L25.0002 15.941Z" fill="#FF947A"/>
<path fill-rule="evenodd" clip-rule="evenodd" d="M24.1253 15.9409L74.6087 66.4247L74.5623 66.4699L74.5149 66.5141L74.4665 66.5572L74.4169 66.5991L74.3663 66.6399L74.3149 66.6793L74.2625 66.7177L74.209 66.7548L74.1546 66.7907L74.0995 66.8252L74.0434 66.8584L73.9865 66.8903L73.9287 66.9209L73.8701 66.9501L73.8107 66.9779L73.7506 67.0043L73.6897 67.0293L73.6282 67.0528L73.5658 67.0748L73.5029 67.0953L73.4393 67.1144L73.375 67.1319L73.3102 67.1479L73.2447 67.1621L73.1786 67.1748L73.1121 67.186L73.045 67.1955L72.9774 67.2032L72.9093 67.2093L72.8407 67.2137L72.7717 67.2163L72.7023 67.2172L22.2188 16.7336L22.2881 16.7327L22.3572 16.7301L22.4257 16.7257L22.4938 16.7196L22.5614 16.7119L22.6285 16.7024L22.6951 16.6912L22.7611 16.6785L22.8266 16.6641L22.8914 16.6483L22.9557 16.6308L23.0194 16.6117L23.0824 16.5912L23.1446 16.5692L23.2062 16.5457L23.267 16.5207L23.3271 16.4943L23.3865 16.4664L23.4451 16.4373L23.5029 16.4067L23.5598 16.3748L23.616 16.3415L23.6711 16.3069L23.7254 16.2711L23.7789 16.2341L23.8313 16.1957L23.8827 16.1563L23.9334 16.1155L23.9829 16.0736L24.0314 16.0305L24.0789 15.9863L24.1253 15.9409Z" fill="#FF947A"/>
<path fill-rule="evenodd" clip-rule="evenodd" d="M10.3785 13.2769L60.8619 63.7605L60.7718 63.7582L60.6829 63.7513L60.595 63.7401L60.5086 63.7246L60.4238 63.7049L60.3405 63.6811L60.2589 63.6534L60.1791 63.6218L60.1012 63.5865L60.0255 63.5475L59.9519 63.5051L59.8806 63.4594L59.8117 63.4102L59.7452 63.3579L59.6814 63.3026L59.6203 63.2443L9.13672 12.7607L9.19779 12.819L9.26165 12.8743L9.32805 12.9266L9.39699 12.9758L9.46832 13.0215L9.54192 13.0639L9.61765 13.1029L9.69552 13.1382L9.77525 13.1698L9.85685 13.1975L9.94019 13.2213L10.0251 13.241L10.1115 13.2565L10.1993 13.2677L10.2882 13.2745L10.3785 13.2769Z" fill="#FF947A"/>
<path fill-rule="evenodd" clip-rule="evenodd" d="M10.3799 23.7445L60.8633 74.2281L60.7732 74.2258L60.6843 74.2189L60.5964 74.2077L60.51 74.1922L60.4252 74.1725L60.3419 74.1488L60.2603 74.121L60.1805 74.0894L60.1027 74.0541L60.027 74.0153L59.9534 73.9728L59.882 73.927L59.8131 73.8778L59.7467 73.8256L59.6828 73.7703L9.19922 23.2866L9.26309 23.342L9.32948 23.3942L9.39842 23.4434L9.46975 23.4892L9.54335 23.5316L9.61909 23.5705L9.69695 23.6058L9.77669 23.6374L9.85829 23.6652L9.94162 23.6889L10.0266 23.7086L10.113 23.7241L10.2007 23.7353L10.2896 23.7422L10.3799 23.7445Z" fill="#FF947A"/>
<path fill-rule="evenodd" clip-rule="evenodd" d="M22.2212 16.7334L72.7048 67.217H72.6633L22.1797 16.7334H22.2212Z" fill="#FF947A"/>
<path fill-rule="evenodd" clip-rule="evenodd" d="M19.8355 15.3696L70.3191 65.8534L70.2727 65.9311L70.2239 66.0071L70.1727 66.0814L70.1191 66.1538L70.0632 66.2244L70.005 66.2931L69.9446 66.3598L69.882 66.4244L19.3984 15.9407L19.4611 15.8762L19.5215 15.8094L19.5796 15.7407L19.6355 15.6702L19.6892 15.5978L19.7403 15.5235L19.7892 15.4474L19.8355 15.3696Z" fill="#FF947A"/>
<path fill-rule="evenodd" clip-rule="evenodd" d="M22.18 16.7336L72.6636 67.2172L72.5941 67.2163L72.525 67.2137L72.4565 67.2093L72.3885 67.2032L72.3208 67.1955L72.2537 67.186L72.1872 67.1748L72.121 67.1621L72.0556 67.1479L71.9908 67.1319L71.9265 67.1144L71.8629 67.0953L71.8 67.0748L71.7376 67.0528L71.6761 67.0293L71.6152 67.0043L71.555 66.9779L71.4957 66.9501L71.437 66.9209L71.3793 66.8903L71.3224 66.8584L71.2664 66.8252L71.2112 66.7907L71.1568 66.7548L71.1034 66.7177L71.0509 66.6793L70.9994 66.6399L70.9489 66.5991L70.8993 66.5572L70.8509 66.5141L70.8034 66.4699L70.757 66.4247L20.2734 15.9409L20.3198 15.9863L20.3673 16.0305L20.4158 16.0736L20.4653 16.1155L20.5158 16.1563L20.5673 16.1957L20.6198 16.2341L20.6732 16.2711L20.7276 16.3069L20.7828 16.3415L20.8388 16.3748L20.8958 16.4067L20.9536 16.4373L21.0121 16.4664L21.0714 16.4943L21.1316 16.5207L21.1925 16.5457L21.2541 16.5692L21.3164 16.5912L21.3793 16.6117L21.4429 16.6308L21.5072 16.6483L21.5721 16.6641L21.6376 16.6785L21.7036 16.6912L21.7702 16.7024L21.8373 16.7119L21.9049 16.7196L21.9729 16.7257L22.0416 16.7301L22.1105 16.7327L22.18 16.7336Z" fill="#FF947A"/>
<path fill-rule="evenodd" clip-rule="evenodd" d="M19.3987 15.9409L69.8823 66.4247L69.8359 66.4699L69.7885 66.5141L69.7399 66.5572L69.6905 66.5991L69.6399 66.6399L69.5885 66.6793L69.5359 66.7177L69.4826 66.7548L69.4282 66.7907L69.373 66.8252L69.3169 66.8584L69.2599 66.8903L69.2022 66.9209L69.1437 66.9501L69.0843 66.9779L69.0242 67.0043L68.9633 67.0293L68.9016 67.0528L68.8394 67.0748L68.7765 67.0953L68.7128 67.1144L68.6486 67.1319L68.5836 67.1479L68.5182 67.1621L68.4522 67.1748L68.3855 67.186L68.3185 67.1955L68.2509 67.2032L68.1828 67.2093L68.1142 67.2137L68.0452 67.2163L67.9758 67.2172L17.4922 16.7336L17.5617 16.7327L17.6307 16.7301L17.6993 16.7257L17.7673 16.7196L17.8349 16.7119L17.9021 16.7024L17.9686 16.6912L18.0347 16.6785L18.1001 16.6641L18.165 16.6483L18.2293 16.6308L18.2929 16.6117L18.3558 16.5912L18.4181 16.5692L18.4797 16.5457L18.5406 16.5207L18.6007 16.4943L18.6601 16.4664L18.7186 16.4373L18.7763 16.4067L18.8334 16.3748L18.8895 16.3415L18.9446 16.3069L18.999 16.2711L19.0525 16.2341L19.1049 16.1957L19.1563 16.1563L19.2069 16.1155L19.2563 16.0736L19.3049 16.0305L19.3523 15.9863L19.3987 15.9409Z" fill="#FF947A"/>
<path fill-rule="evenodd" clip-rule="evenodd" d="M17.4907 16.7334L67.9743 67.217H67.9328L17.4492 16.7334H17.4907Z" fill="#FF947A"/>
<path fill-rule="evenodd" clip-rule="evenodd" d="M15.105 15.3696L65.5886 65.8534L65.5424 65.9311L65.4934 66.0071L65.4424 66.0814L65.3886 66.1538L65.3328 66.2244L65.2746 66.2931L65.2141 66.3598L65.1516 66.4244L14.668 15.9407L14.7306 15.8762L14.791 15.8094L14.8492 15.7407L14.905 15.6702L14.9588 15.5978L15.01 15.5235L15.0588 15.4474L15.105 15.3696Z" fill="#FF947A"/>
<path fill-rule="evenodd" clip-rule="evenodd" d="M17.4494 16.7336L67.933 67.2172L67.8636 67.2163L67.7946 67.2137L67.726 67.2093L67.6579 67.2032L67.5903 67.1955L67.5232 67.186L67.4566 67.1748L67.3906 67.1621L67.3251 67.1479L67.2602 67.1319L67.196 67.1144L67.1323 67.0953L67.0694 67.0748L67.0071 67.0528L66.9455 67.0293L66.8847 67.0043L66.8246 66.9779L66.7651 66.9501L66.7066 66.9209L66.6488 66.8903L66.5919 66.8584L66.5358 66.8252L66.4806 66.7907L66.4263 66.7548L66.3728 66.7177L66.3204 66.6793L66.2688 66.6399L66.2183 66.5991L66.1688 66.5572L66.1203 66.5141L66.0728 66.4699L66.0264 66.4247L15.543 15.9409L15.5894 15.9863L15.6367 16.0305L15.6852 16.0736L15.7348 16.1155L15.7854 16.1563L15.8368 16.1957L15.8892 16.2341L15.9427 16.2711L15.997 16.3069L16.0522 16.3415L16.1083 16.3748L16.1652 16.4067L16.223 16.4373L16.2816 16.4664L16.341 16.4943L16.4011 16.5207L16.4619 16.5457L16.5235 16.5692L16.5859 16.5912L16.6488 16.6117L16.7124 16.6308L16.7767 16.6483L16.8415 16.6641L16.907 16.6785L16.9731 16.6912L17.0396 16.7024L17.1067 16.7119L17.1743 16.7196L17.2424 16.7257L17.311 16.7301L17.38 16.7327L17.4494 16.7336Z" fill="#FF947A"/>
<path fill-rule="evenodd" clip-rule="evenodd" d="M14.6681 15.9409L65.1517 66.4247L65.1053 66.4699L65.0578 66.5141L65.0094 66.5572L64.9598 66.5991L64.9093 66.6399L64.8578 66.6793L64.8054 66.7177L64.752 66.7548L64.6977 66.7907L64.6425 66.8252L64.5864 66.8584L64.5294 66.8903L64.4717 66.9209L64.4131 66.9501L64.3537 66.9779L64.2936 67.0043L64.2328 67.0293L64.1712 67.0528L64.1089 67.0748L64.046 67.0953L63.9823 67.1144L63.918 67.1319L63.8532 67.1479L63.7877 67.1621L63.7217 67.1748L63.655 67.186L63.588 67.1955L63.5204 67.2032L63.4523 67.2093L63.3837 67.2137L63.3146 67.2163L63.2453 67.2172L12.7617 16.7336L12.8311 16.7327L12.9001 16.7301L12.9687 16.7257L13.0368 16.7196L13.1044 16.7119L13.1715 16.7024L13.2381 16.6912L13.3041 16.6785L13.3696 16.6641L13.4344 16.6483L13.4988 16.6308L13.5624 16.6117L13.6253 16.5912L13.6876 16.5692L13.7492 16.5457L13.8101 16.5207L13.8701 16.4943L13.9296 16.4664L13.9881 16.4373L14.0459 16.4067L14.1028 16.3748L14.1589 16.3415L14.2141 16.3069L14.2684 16.2711L14.3219 16.2341L14.3743 16.1957L14.4259 16.1563L14.4763 16.1155L14.5259 16.0736L14.5743 16.0305L14.6217 15.9863L14.6681 15.9409Z" fill="#FF947A"/>
<path fill-rule="evenodd" clip-rule="evenodd" d="M11.7352 28.4798L62.2187 78.9634L62.172 78.9528L62.1257 78.9406L62.0802 78.9267L62.0356 78.9112L61.9916 78.8942L61.9484 78.8755L61.906 78.8554L61.8644 78.8338L61.8239 78.8107L61.7841 78.7862L61.7453 78.7603L61.7076 78.7331L61.6709 78.7046L61.6353 78.6748L61.6008 78.6438L11.1172 28.1602L11.1517 28.1912L11.1873 28.221L11.2241 28.2495L11.2619 28.2767L11.3005 28.3026L11.3403 28.3271L11.3808 28.3502L11.4224 28.3718L11.4648 28.3919L11.508 28.4106L11.552 28.4276L11.5967 28.4431L11.6421 28.457L11.6884 28.4692L11.7352 28.4798Z" fill="#FF947A"/>
<path fill-rule="evenodd" clip-rule="evenodd" d="M12.7641 16.7334L63.2477 67.217H63.2062L12.7227 16.7334H12.7641Z" fill="#FF947A"/>
<path fill-rule="evenodd" clip-rule="evenodd" d="M12.7229 16.7336L63.2065 67.2172L63.1371 67.2163L63.0681 67.2137L62.9995 67.2093L62.9315 67.2032L62.8639 67.1955L62.7968 67.186L62.7301 67.1748L62.6641 67.1621L62.5987 67.1479L62.5337 67.1319L62.4695 67.1144L62.4059 67.0953L62.3429 67.0748L62.2807 67.0528L62.2191 67.0293L62.1581 67.0043L62.098 66.9779L62.0387 66.9501L61.9801 66.9209L61.9224 66.8903L61.8653 66.8584L61.8093 66.8252L61.7541 66.7907L61.6997 66.7548L61.6464 66.7177L61.5939 66.6793L61.5424 66.6399L61.4919 66.5991L61.4424 66.5572L61.3939 66.5141L61.3464 66.4699L61.3 66.4247L10.8164 15.9409L10.8628 15.9863L10.9103 16.0305L10.9588 16.0736L11.0083 16.1155L11.0588 16.1563L11.1103 16.1957L11.1628 16.2341L11.2163 16.2711L11.2705 16.3069L11.3257 16.3415L11.3819 16.3748L11.4388 16.4067L11.4965 16.4373L11.5551 16.4664L11.6145 16.4943L11.6745 16.5207L11.7355 16.5457L11.7971 16.5692L11.8593 16.5912L11.9223 16.6117L11.9859 16.6308L12.0501 16.6483L12.1151 16.6641L12.1805 16.6785L12.2465 16.6912L12.3132 16.7024L12.3803 16.7119L12.4479 16.7196L12.516 16.7257L12.5845 16.7301L12.6536 16.7327L12.7229 16.7336Z" fill="#FF947A"/>
<path fill-rule="evenodd" clip-rule="evenodd" d="M24.0781 17.9492L74.5616 68.4328L74.6691 68.551L74.7649 68.679L74.8484 68.8159L74.9187 68.9611L74.9747 69.1135L75.0159 69.2724L75.0412 69.4368L75.0497 69.606L24.5661 19.1224L24.5576 18.9532L24.5323 18.7887L24.4912 18.6299L24.4351 18.4775L24.3648 18.3323L24.2813 18.1954L24.1856 18.0674L24.0781 17.9492Z" fill="#FF947A"/>
<path fill-rule="evenodd" clip-rule="evenodd" d="M24.5664 19.1221L75.05 69.6057V70.2681L24.5664 19.7843V19.1221Z" fill="#FF947A"/>
<path fill-rule="evenodd" clip-rule="evenodd" d="M30.918 10.3384L81.4014 60.822L81.4568 60.8857L81.509 60.9522L81.5582 61.0212L81.604 61.0925L81.6465 61.1661L81.6854 61.2418L81.7206 61.3197L81.7522 61.3994L81.78 61.481L81.8037 61.5644L81.8234 61.6493L81.8389 61.7357L81.8502 61.8234L81.857 61.9124L81.8593 62.0026L31.3757 11.519L31.3734 11.4288L31.3666 11.3398L31.3554 11.252L31.34 11.1657L31.3202 11.0808L31.2965 10.9974L31.2686 10.9158L31.2372 10.8361L31.2018 10.7582L31.1629 10.6825L31.1205 10.6089L31.0746 10.5376L31.0256 10.4686L30.9733 10.4021L30.918 10.3384Z" fill="#FF947A"/>
<path fill-rule="evenodd" clip-rule="evenodd" d="M31.3754 11.519L81.859 62.0026L81.8567 62.0928L81.8499 62.1818L81.8386 62.2696L81.8231 62.3558L81.8034 62.4408L81.7796 62.5241L81.7519 62.6057L81.7203 62.6854L81.6851 62.7633L81.6462 62.839L81.6036 62.9126L81.5579 62.984L81.5087 63.0529L81.4564 63.1193L81.4011 63.1832L81.3428 63.2442L30.8594 12.7606L30.9176 12.6996L30.973 12.6357L31.0252 12.5693L31.0743 12.5004L31.1202 12.429L31.1626 12.3554L31.2015 12.2796L31.2368 12.2018L31.2683 12.1221L31.2962 12.0405L31.3199 11.9572L31.3396 11.8722L31.3551 11.786L31.3663 11.6981L31.3731 11.6092L31.3754 11.519Z" fill="#FF947A"/>
<path fill-rule="evenodd" clip-rule="evenodd" d="M30.8589 12.7607L81.3424 63.2443L81.2813 63.3026L81.2175 63.3579L81.1511 63.4102L81.0821 63.4594L81.0108 63.5051L80.9372 63.5475L80.8615 63.5865L80.7836 63.6218L80.7039 63.6534L80.6223 63.6811L80.5389 63.7049L80.4541 63.7246L80.3677 63.7401L80.2799 63.7513L80.1909 63.7582L80.1008 63.7605L29.6172 13.2769L29.7073 13.2745L29.7964 13.2677L29.8841 13.2565L29.9705 13.241L30.0555 13.2213L30.1387 13.1975L30.2203 13.1698L30.3 13.1382L30.3779 13.1029L30.4536 13.0639L30.5272 13.0215L30.5985 12.9758L30.6676 12.9266L30.734 12.8743L30.7977 12.819L30.8589 12.7607Z" fill="#FF947A"/>
<path fill-rule="evenodd" clip-rule="evenodd" d="M26.9064 16.7336L77.39 67.2172L77.3205 67.2163L77.2516 67.2137L77.1831 67.2093L77.1149 67.2032L77.0473 67.1955L76.9803 67.186L76.9136 67.1748L76.8476 67.1621L76.7821 67.1479L76.7173 67.1319L76.6529 67.1144L76.5893 67.0953L76.5264 67.0748L76.4641 67.0528L76.4025 67.0293L76.3416 67.0043L76.2816 66.9779L76.2221 66.9501L76.1636 66.9209L76.1059 66.8903L76.0489 66.8584L75.9928 66.8252L75.9376 66.7907L75.8833 66.7548L75.8299 66.7177L75.7773 66.6793L75.7259 66.6399L75.6753 66.5991L75.6259 66.5572L75.5773 66.5141L75.53 66.4699L75.4835 66.4247L25 15.9409L25.0464 15.9863L25.0939 16.0305L25.1423 16.0736L25.1919 16.1155L25.2423 16.1563L25.2939 16.1957L25.3463 16.2341L25.3997 16.2711L25.454 16.3069L25.5092 16.3415L25.5653 16.3748L25.6223 16.4067L25.68 16.4373L25.7385 16.4664L25.798 16.4943L25.8581 16.5207L25.9189 16.5457L25.9805 16.5692L26.0428 16.5912L26.1057 16.6117L26.1695 16.6308L26.2337 16.6483L26.2985 16.6641L26.364 16.6785L26.43 16.6912L26.4967 16.7024L26.5637 16.7119L26.6313 16.7196L26.6995 16.7257L26.768 16.7301L26.8371 16.7327L26.9064 16.7336Z" fill="#FF947A"/>
<path fill-rule="evenodd" clip-rule="evenodd" d="M24.5645 19.7847L75.0481 70.2684H71.7258L21.2422 19.7847H24.5645Z" fill="#FF947A"/>
<path fill-rule="evenodd" clip-rule="evenodd" d="M29.6484 13.7207L80.132 64.2043V64.5178L29.6484 14.0342V13.7207Z" fill="#FF947A"/>
<path fill-rule="evenodd" clip-rule="evenodd" d="M29.648 14.0342L80.1316 64.5178L80.1308 64.5872L80.1281 64.6562L80.1237 64.7248L80.1176 64.7929L80.1099 64.8605L80.1004 64.9275L80.0893 64.9942L80.0765 65.0602L80.0623 65.1257L80.0463 65.1904L80.0288 65.2549L80.0097 65.3185L79.9893 65.3814L79.9672 65.4436L79.9437 65.5052L79.9187 65.5662L79.8923 65.6263L79.8645 65.6857L79.8353 65.7442L79.8047 65.8019L79.7728 65.8588L79.7396 65.915L79.7051 65.9702L79.6692 66.0246L79.6321 66.0779L79.5937 66.1305L79.5543 66.1819L79.5135 66.2324L79.4716 66.2819L79.4285 66.3305L79.3844 66.3779L79.3391 66.4243L28.8555 15.9406L28.9008 15.8942L28.9449 15.8468L28.988 15.7983L29.0299 15.7488L29.0707 15.6983L29.1103 15.6468L29.1485 15.5943L29.1856 15.5408L29.2215 15.4866L29.256 15.4314L29.2892 15.3752L29.3212 15.3183L29.3517 15.2606L29.3809 15.202L29.4088 15.1426L29.4352 15.0826L29.4601 15.0216L29.4836 14.96L29.5057 14.8978L29.5263 14.8348L29.5452 14.7712L29.5627 14.7068L29.5787 14.642L29.5929 14.5766L29.6057 14.5106L29.6168 14.4439L29.6263 14.3768L29.634 14.3092L29.6401 14.2411L29.6445 14.1726L29.6472 14.1036L29.648 14.0342Z" fill="#FF947A"/>
<path fill-rule="evenodd" clip-rule="evenodd" d="M28.8558 15.9409L79.3393 66.4247L79.2929 66.4699L79.2455 66.5141L79.1969 66.5572L79.1475 66.5991L79.097 66.6399L79.0453 66.6793L78.9929 66.7177L78.9395 66.7548L78.8852 66.7907L78.83 66.8252L78.7739 66.8584L78.7169 66.8903L78.6592 66.9209L78.6007 66.9501L78.5412 66.9779L78.4812 67.0043L78.4203 67.0293L78.3587 67.0528L78.2964 67.0748L78.2335 67.0953L78.1698 67.1144L78.1056 67.1319L78.0407 67.1479L77.9752 67.1621L77.9092 67.1748L77.8425 67.186L77.7755 67.1955L77.7079 67.2032L77.6398 67.2093L77.5712 67.2137L77.5022 67.2163L77.4328 67.2172L26.9492 16.7336L27.0187 16.7327L27.0876 16.7301L27.1563 16.7257L27.2243 16.7196L27.2919 16.7119L27.359 16.7024L27.4256 16.6912L27.4916 16.6785L27.5571 16.6641L27.622 16.6483L27.6863 16.6308L27.7499 16.6117L27.8128 16.5912L27.8751 16.5692L27.9367 16.5457L27.9976 16.5207L28.0578 16.4943L28.1171 16.4664L28.1756 16.4373L28.2334 16.4067L28.2903 16.3748L28.3464 16.3415L28.4016 16.3069L28.456 16.2711L28.5094 16.2341L28.5619 16.1957L28.6134 16.1563L28.6639 16.1155L28.7134 16.0736L28.7619 16.0305L28.8094 15.9863L28.8558 15.9409Z" fill="#FF947A"/>
<path fill-rule="evenodd" clip-rule="evenodd" d="M26.9477 16.7334L77.4313 67.217H77.3898L26.9062 16.7334H26.9477Z" fill="#FF947A"/>
<path fill-rule="evenodd" clip-rule="evenodd" d="M28.2773 16.8813L78.7609 67.3649V70.268L28.2773 19.7843V16.8813Z" fill="#FF947A"/>
<path fill-rule="evenodd" clip-rule="evenodd" d="M28.2785 19.7847L78.7621 70.2684H76.0617L25.5781 19.7847H28.2785Z" fill="#FF947A"/>
<path fill-rule="evenodd" clip-rule="evenodd" d="M30.8589 23.2285L81.3424 73.7123L81.2813 73.7705L81.2175 73.8257L81.1511 73.878L81.0821 73.9272L81.0108 73.9729L80.9372 74.0154L80.8615 74.0543L80.7836 74.0896L80.7039 74.1212L80.6223 74.1489L80.5389 74.1726L80.4541 74.1924L80.3677 74.2079L80.2799 74.2191L80.1909 74.226L80.1008 74.2282L29.6172 23.7446L29.7073 23.7424L29.7964 23.7354L29.8841 23.7242L29.9705 23.7088L30.0555 23.689L30.1387 23.6653L30.2203 23.6376L30.3 23.606L30.3779 23.5706L30.4536 23.5317L30.5272 23.4893L30.5985 23.4436L30.6676 23.3944L30.734 23.3421L30.7977 23.2868L30.8589 23.2285Z" fill="#FF947A"/>
<path fill-rule="evenodd" clip-rule="evenodd" d="M17.9375 17.9487L68.421 68.4323L68.476 68.4901L68.5284 68.5505L68.5778 68.6131L68.6242 68.6783L68.6675 68.7458L68.7076 68.8154L68.7443 68.887L68.7778 68.9605L68.8075 69.0358L68.8338 69.113L68.8563 69.1917L68.8748 69.2719L68.8895 69.3535L68.9002 69.4365L68.9066 69.5206L68.9087 69.6058L18.4252 19.1222L18.423 19.037L18.4166 18.9529L18.4059 18.8699L18.3912 18.7883L18.3727 18.7081L18.3502 18.6294L18.324 18.5522L18.2942 18.4769L18.2607 18.4033L18.224 18.3317L18.1839 18.2622L18.1406 18.1947L18.0942 18.1295L18.0448 18.0667L17.9926 18.0065L17.9375 17.9487Z" fill="#FF947A"/>
<path fill-rule="evenodd" clip-rule="evenodd" d="M18.4258 19.1221L68.9093 69.6057V70.2681L18.4258 19.7843V19.1221Z" fill="#FF947A"/>
<path fill-rule="evenodd" clip-rule="evenodd" d="M14.0938 16.8813L64.5773 67.3649V70.268L14.0938 19.7843V16.8813Z" fill="#FF947A"/>
<path fill-rule="evenodd" clip-rule="evenodd" d="M18.4279 19.7847L68.9113 70.2684H65.5891L15.1055 19.7847H18.4279Z" fill="#FF947A"/>
<path fill-rule="evenodd" clip-rule="evenodd" d="M14.091 19.7847L64.5746 70.2684H61.8742L11.3906 19.7847H14.091Z" fill="#FF947A"/>
<path fill-rule="evenodd" clip-rule="evenodd" d="M29.6189 23.7446L80.1025 74.2282H60.8624L10.3789 23.7446H29.6189Z" fill="#FF947A"/>
<path fill-rule="evenodd" clip-rule="evenodd" d="M15.996 26.3151L66.4795 76.7987L66.4335 76.7559L66.3864 76.7144L66.3385 76.6741L66.2899 76.6351L66.2403 76.5975L66.1899 76.5609L66.1387 76.5259L66.0867 76.4921L66.0339 76.4596L65.9804 76.4285L65.9263 76.3988L65.8715 76.3703L65.816 76.3432L65.7599 76.3175L65.7032 76.2932L65.6459 76.2703L65.588 76.2488L65.5296 76.2287L65.4708 76.21L65.4113 76.1928L65.3516 76.1771L65.2913 76.1627L65.2307 76.1499L65.1696 76.1384L65.1083 76.1285L65.0465 76.1201L64.9844 76.1132L64.9221 76.1079L64.8595 76.104L64.7967 76.1016L64.7336 76.1008L14.25 25.6172L14.3131 25.618L14.3759 25.6203L14.4385 25.6241L14.5008 25.6296L14.5629 25.6365L14.6247 25.6449L14.686 25.6548L14.7471 25.6661L14.8077 25.6791L14.868 25.6933L14.9279 25.7092L14.9872 25.7264L15.0461 25.7451L15.1044 25.7652L15.1623 25.7867L15.2196 25.8096L15.2763 25.8339L15.3324 25.8596L15.3879 25.8867L15.4427 25.9151L15.4968 25.9449L15.5504 25.976L15.6031 26.0085L15.6551 26.0423L15.7063 26.0773L15.7567 26.1139L15.8063 26.1515L15.8551 26.1905L15.9029 26.2308L15.9499 26.2723L15.996 26.3151Z" fill="#FF947A"/>
<path fill-rule="evenodd" clip-rule="evenodd" d="M25.7478 25.6172L76.2314 76.1008L76.1683 76.1016L76.1055 76.104L76.0428 76.1079L75.9806 76.1132L75.9186 76.1201L75.8567 76.1285L75.7954 76.1384L75.7343 76.1499L75.6736 76.1627L75.6134 76.1771L75.5536 76.1928L75.4942 76.21L75.4354 76.2287L75.377 76.2488L75.3191 76.2703L75.2619 76.2932L75.2051 76.3175L75.149 76.3432L75.0935 76.3703L75.0387 76.3988L74.9846 76.4285L74.9311 76.4596L74.8783 76.4921L74.8264 76.5259L74.7752 76.5609L74.7247 76.5975L74.6751 76.6351L74.6264 76.6741L74.5786 76.7144L74.5315 76.7559L74.4855 76.7987L74.4403 76.8427L74.3963 76.8879L74.3535 76.9339L74.312 76.9809L74.2718 77.0288L74.2327 77.0775L74.195 77.1272L74.1586 77.1775L74.1235 77.2288L74.0896 77.2808L74.0572 77.3335L74.026 77.3869L73.9963 77.4411L73.9679 77.496L73.9407 77.5515L73.9151 77.6076L73.8908 77.6643L73.8679 77.7215L73.8463 77.7793L73.8262 77.8377L73.8076 77.8967L73.7903 77.956L73.7746 78.0159L73.7603 78.076L73.7474 78.1368L73.736 78.1977L73.726 78.2592L73.7176 78.3209L73.7107 78.3829L73.7054 78.4453L73.7015 78.5079L73.6992 78.5708L73.6984 78.6339L73.6988 78.6787L73.7 78.7235L73.7019 78.7681L73.7047 78.8127L73.7082 78.8571L73.7124 78.9013L73.7175 78.9455L73.7234 78.9893L23.2398 28.5057L23.2339 28.4619L23.2288 28.4177L23.2247 28.3735L23.2211 28.3291L23.2184 28.2844L23.2164 28.2399L23.2152 28.1951L23.2148 28.1501L23.2156 28.0872L23.2179 28.0243L23.2218 27.9617L23.2271 27.8993L23.234 27.8373L23.2424 27.7756L23.2524 27.7141L23.2638 27.6531L23.2767 27.5924L23.291 27.5323L23.3067 27.4724L23.324 27.4131L23.3427 27.3541L23.3627 27.2957L23.3843 27.2379L23.4072 27.1807L23.4315 27.124L23.4572 27.0679L23.4843 27.0124L23.5127 26.9575L23.5424 26.9033L23.5736 26.8499L23.6062 26.7971L23.6399 26.7452L23.6751 26.6939L23.7114 26.6435L23.7491 26.5939L23.7882 26.5452L23.8284 26.4973L23.8699 26.4503L23.9127 26.4043L23.9568 26.3591L24.0019 26.3151L24.0479 26.2723L24.095 26.2308L24.1428 26.1905L24.1916 26.1515L24.2412 26.1139L24.2916 26.0773L24.3428 26.0423L24.3948 26.0085L24.4475 25.976L24.501 25.9449L24.5551 25.9151L24.6099 25.8867L24.6654 25.8596L24.7215 25.8339L24.7783 25.8096L24.8355 25.7867L24.8934 25.7652L24.9518 25.7451L25.0106 25.7264L25.07 25.7092L25.1299 25.6933L25.19 25.6791L25.2507 25.6661L25.3118 25.6548L25.3731 25.6449L25.435 25.6365L25.497 25.6296L25.5592 25.6241L25.6219 25.6203L25.6847 25.618L25.7478 25.6172Z" fill="#FF947A"/>
<path fill-rule="evenodd" clip-rule="evenodd" d="M27.5411 26.3591L78.0247 76.8427L77.9795 76.7986L77.9335 76.7559L77.8864 76.7144L77.8385 76.6741L77.7899 76.635L77.7403 76.5975L77.6899 76.5609L77.6387 76.5259L77.5867 76.4921L77.5339 76.4596L77.4804 76.4285L77.4263 76.3988L77.3715 76.3703L77.316 76.3432L77.2599 76.3175L77.2032 76.2932L77.1459 76.2703L77.088 76.2488L77.0296 76.2286L76.9708 76.21L76.9113 76.1928L76.8516 76.177L76.7913 76.1627L76.7307 76.1499L76.6696 76.1384L76.6083 76.1285L76.5465 76.1201L76.4844 76.1132L76.4221 76.1078L76.3595 76.104L76.2967 76.1016L76.2336 76.1008L25.75 25.6172L25.8131 25.618L25.8759 25.6203L25.9385 25.6241L26.0008 25.6296L26.0629 25.6365L26.1247 25.6449L26.186 25.6548L26.2471 25.6661L26.3077 25.6791L26.368 25.6933L26.4279 25.7092L26.4872 25.7264L26.5461 25.7451L26.6044 25.7652L26.6623 25.7867L26.7196 25.8096L26.7763 25.8339L26.8324 25.8596L26.8879 25.8867L26.9427 25.9151L26.9968 25.9449L27.0504 25.976L27.1031 26.0085L27.1551 26.0423L27.2063 26.0773L27.2567 26.1139L27.3063 26.1515L27.3551 26.1905L27.4029 26.2308L27.4499 26.2723L27.496 26.3151L27.5411 26.3591Z" fill="#FF947A"/>
<path fill-rule="evenodd" clip-rule="evenodd" d="M14.2478 25.6172L64.7314 76.1008L64.6683 76.1016L64.6055 76.104L64.5428 76.1078L64.4806 76.1132L64.4186 76.1201L64.3567 76.1285L64.2954 76.1384L64.2343 76.1499L64.1736 76.1627L64.1134 76.177L64.0536 76.1928L63.9942 76.21L63.9354 76.2286L63.877 76.2488L63.8191 76.2703L63.7618 76.2932L63.7051 76.3175L63.649 76.3432L63.5935 76.3703L63.5387 76.3988L63.4846 76.4285L63.4311 76.4596L63.3783 76.4921L63.3264 76.5259L63.2752 76.5609L63.2247 76.5975L63.1751 76.635L63.1264 76.6741L63.0786 76.7144L63.0315 76.7559L62.9855 76.7986L62.9403 76.8427L62.8963 76.8878L62.8535 76.9339L62.812 76.9809L62.7718 77.0288L62.7327 77.0775L62.695 77.1272L62.6586 77.1775L62.6235 77.2288L62.5896 77.2808L62.5572 77.3334L62.526 77.3869L62.4963 77.4411L62.4679 77.496L62.4407 77.5514L62.4151 77.6076L62.3908 77.6642L62.3679 77.7215L62.3463 77.7793L62.3262 77.8377L62.3076 77.8967L62.2903 77.956L62.2746 78.0159L62.2603 78.076L62.2474 78.1368L62.236 78.1977L62.226 78.2592L62.2176 78.3209L62.2107 78.3829L62.2054 78.4453L62.2015 78.5079L62.1992 78.5708L62.1984 78.6339L62.1987 78.6753L62.1998 78.7168L62.2015 78.7581L62.2038 78.7994L62.2068 78.8405L62.2104 78.8816L62.2148 78.9225L62.2198 78.9633L11.7363 28.4797L11.7312 28.4389L11.727 28.398L11.7232 28.3569L11.7203 28.3159L11.7179 28.2745L11.7162 28.2332L11.7151 28.1917L11.7148 28.1501L11.7156 28.0872L11.7179 28.0243L11.7218 27.9617L11.7271 27.8993L11.734 27.8373L11.7424 27.7756L11.7524 27.7141L11.7638 27.6531L11.7767 27.5924L11.791 27.5323L11.8067 27.4724L11.824 27.4131L11.8427 27.3541L11.8627 27.2957L11.8843 27.2379L11.9072 27.1807L11.9315 27.124L11.9572 27.0679L11.9843 27.0124L12.0127 26.9575L12.0424 26.9033L12.0736 26.8499L12.1062 26.7971L12.1399 26.7452L12.1751 26.6939L12.2114 26.6435L12.2491 26.5939L12.2882 26.5452L12.3284 26.4973L12.3699 26.4503L12.4127 26.4043L12.4568 26.3591L12.5019 26.3151L12.5479 26.2723L12.595 26.2308L12.6428 26.1905L12.6916 26.1515L12.7412 26.1139L12.7916 26.0773L12.8428 26.0423L12.8948 26.0085L12.9475 25.976L13.001 25.9449L13.0551 25.9151L13.1099 25.8867L13.1654 25.8596L13.2215 25.8339L13.2783 25.8096L13.3355 25.7867L13.3934 25.7652L13.4518 25.7451L13.5106 25.7264L13.57 25.7092L13.6299 25.6933L13.69 25.6791L13.7507 25.6661L13.8118 25.6548L13.8731 25.6449L13.935 25.6365L13.997 25.6296L14.0592 25.6241L14.1219 25.6203L14.1847 25.618L14.2478 25.6172Z" fill="#FF947A"/>
<path fill-rule="evenodd" clip-rule="evenodd" d="M30.8594 20.7451L81.343 71.2288L81.4012 71.2899L81.4566 71.3538L81.5087 71.4202L81.5579 71.4891L81.6038 71.5604L81.6462 71.634L81.6851 71.7098L81.7203 71.7876L81.7519 71.8674L81.7796 71.949L81.8034 72.0323L81.8231 72.1172L81.8386 72.2036L81.8499 72.2914L81.8567 72.3804L81.859 72.4706L31.3754 21.987L31.3731 21.8967L31.3663 21.8078L31.3551 21.7199L31.3396 21.6335L31.3199 21.5487L31.2962 21.4654L31.2683 21.3838L31.2368 21.3041L31.2015 21.2262L31.1626 21.1505L31.1202 21.0769L31.0743 21.0055L31.0252 20.9365L30.973 20.8701L30.9176 20.8063L30.8594 20.7451Z" fill="#FF947A"/>
<path fill-rule="evenodd" clip-rule="evenodd" d="M29.288 27.2183L79.7715 77.7019L79.7699 77.7679L79.7648 77.8331L79.7567 77.8975L79.7454 77.9607L79.7308 78.0229L79.7135 78.0839L79.6932 78.1436L79.67 78.202L79.6442 78.2591L79.6158 78.3145L79.5847 78.3684L79.5511 78.4207L79.5151 78.4712L79.4768 78.5197L79.4364 78.5665L79.3938 78.6113L28.9102 28.1276L28.9528 28.0829L28.9932 28.0361L29.0315 27.9876L29.0675 27.9371L29.1011 27.8848L29.1322 27.8309L29.1607 27.7755L29.1864 27.7184L29.2096 27.66L29.2299 27.6003L29.2474 27.5392L29.2618 27.4771L29.2731 27.4139L29.2814 27.3495L29.2863 27.2843L29.288 27.2183Z" fill="#FF947A"/>
<path fill-rule="evenodd" clip-rule="evenodd" d="M29.2891 24.189L79.7725 74.6726V77.7019L29.2891 27.2183V24.189Z" fill="#FF947A"/>
<path fill-rule="evenodd" clip-rule="evenodd" d="M27.2266 26.6733L77.71 77.1571L77.7792 77.2296L77.8448 77.3053L77.9068 77.3841L77.9651 77.4661L78.0194 77.5508L78.0698 77.6383L78.1159 77.7284L78.1576 77.8209L78.1951 77.9157L78.2279 78.0128L78.256 78.1119L78.2794 78.2129L78.2978 78.3159L78.3111 78.4203L78.3191 78.5264L78.3219 78.6339L27.8383 28.1501L27.8355 28.0427L27.8275 27.9367L27.8142 27.8321L27.7958 27.7293L27.7724 27.6283L27.7443 27.5292L27.7115 27.4321L27.6742 27.3373L27.6323 27.2447L27.5862 27.1547L27.5359 27.0672L27.4815 26.9825L27.4234 26.9005L27.3614 26.8217L27.2956 26.7459L27.2266 26.6733Z" fill="#FF947A"/>
<path fill-rule="evenodd" clip-rule="evenodd" d="M31.3754 21.9868L81.859 72.4704L81.8567 72.5606L81.8499 72.6496L81.8386 72.7373L81.8231 72.8237L81.8034 72.9087L81.7796 72.9919L81.7519 73.0735L81.7203 73.1532L81.6851 73.2311L81.6462 73.3068L81.6036 73.3804L81.5579 73.4517L81.5087 73.5207L81.4564 73.5872L81.4011 73.6509L81.3428 73.7122L30.8594 23.2284L30.9176 23.1673L30.973 23.1035L31.0252 23.0371L31.0743 22.9681L31.1202 22.8968L31.1626 22.8232L31.2015 22.7473L31.2368 22.6696L31.2683 22.5899L31.2962 22.5083L31.3199 22.4249L31.3396 22.34L31.3551 22.2537L31.3663 22.1659L31.3731 22.0769L31.3754 21.9868Z" fill="#FF947A"/>
<path fill-rule="evenodd" clip-rule="evenodd" d="M16.3383 28.1499L66.8219 78.6336L66.8191 78.741L66.8111 78.8471L66.7978 78.9516L66.7794 79.0544L66.756 79.1555L66.7279 79.2546L66.6951 79.3516L66.6576 79.4464L66.6159 79.539L66.5698 79.6291L66.5194 79.7166L66.4651 79.8012L66.4068 79.8832L66.3448 79.962L66.2792 80.0378L66.21 80.1104L15.7266 29.6267L15.7956 29.5542L15.8614 29.4784L15.9234 29.3995L15.9815 29.3176L16.0359 29.233L16.0862 29.1455L16.1323 29.0554L16.1742 28.9628L16.2115 28.868L16.2443 28.771L16.2724 28.6719L16.2958 28.5708L16.3142 28.4679L16.3275 28.3635L16.3355 28.2574L16.3383 28.1499Z" fill="#FF947A"/>
<path fill-rule="evenodd" clip-rule="evenodd" d="M15.7269 29.627L66.2104 80.1107L66.1379 80.1798L66.0621 80.2455L65.9832 80.3075L65.9013 80.3656L65.8165 80.42L65.7291 80.4703L65.6391 80.5164L65.5465 80.5583L65.4517 80.5956L65.3547 80.6284L65.2556 80.6566L65.1545 80.6799L65.0516 80.6983L64.9472 80.7116L64.8411 80.7196L64.7336 80.7224L14.25 30.2388L14.3575 30.236L14.4636 30.228L14.5681 30.2147L14.6709 30.1963L14.772 30.173L14.8711 30.1448L14.9681 30.112L15.0629 30.0746L15.1555 30.0328L15.2455 29.9867L15.3331 29.9363L15.4177 29.882L15.4996 29.8238L15.5785 29.7618L15.6543 29.6962L15.7269 29.627Z" fill="#FF947A"/>
<path fill-rule="evenodd" clip-rule="evenodd" d="M14.248 30.2385L64.7316 80.7221L64.6241 80.7193L64.5181 80.7113L64.4136 80.6979L64.3108 80.6795L64.2097 80.6562L64.1105 80.6281L64.0136 80.5953L63.9187 80.5579L63.8261 80.5161L63.7361 80.4699L63.6487 80.4197L63.5639 80.3653L63.482 80.3071L63.4032 80.2451L63.3274 80.1794L12.8438 29.6958L12.9196 29.7614L12.9985 29.8234L13.0804 29.8817L13.1651 29.9359L13.2526 29.9863L13.3427 30.0325L13.4351 30.0742L13.53 30.1117L13.6271 30.1445L13.7261 30.1726L13.8272 30.1959L13.93 30.2143L14.0345 30.2277L14.1405 30.2357L14.248 30.2385Z" fill="#FF947A"/>
<path fill-rule="evenodd" clip-rule="evenodd" d="M15.7266 26.6733L66.21 77.1571L66.2792 77.2296L66.3448 77.3053L66.4068 77.3841L66.4651 77.4661L66.5194 77.5508L66.5698 77.6383L66.6159 77.7284L66.6576 77.8209L66.6951 77.9157L66.7279 78.0128L66.756 78.1119L66.7794 78.2129L66.7978 78.3159L66.8111 78.4203L66.8191 78.5264L66.8219 78.6339L16.3383 28.1501L16.3355 28.0427L16.3275 27.9367L16.3142 27.8321L16.2958 27.7293L16.2724 27.6283L16.2443 27.5292L16.2115 27.4321L16.1742 27.3373L16.1323 27.2447L16.0862 27.1547L16.0359 27.0672L15.9815 26.9825L15.9234 26.9005L15.8614 26.8217L15.7956 26.7459L15.7266 26.6733Z" fill="#FF947A"/>
<path fill-rule="evenodd" clip-rule="evenodd" d="M27.8383 28.1499L78.3219 78.6336L78.3191 78.741L78.3111 78.8471L78.2978 78.9516L78.2794 79.0544L78.256 79.1555L78.2279 79.2546L78.1951 79.3516L78.1576 79.4464L78.1159 79.539L78.0698 79.6291L78.0194 79.7166L77.9651 79.8012L77.9068 79.8832L77.8448 79.962L77.7792 80.0378L77.71 80.1104L27.2266 29.6267L27.2956 29.5542L27.3614 29.4784L27.4234 29.3995L27.4815 29.3176L27.5359 29.233L27.5862 29.1455L27.6323 29.0554L27.6742 28.9628L27.7115 28.868L27.7443 28.771L27.7724 28.6719L27.7958 28.5708L27.8142 28.4679L27.8275 28.3635L27.8355 28.2574L27.8383 28.1499Z" fill="#FF947A"/>
<path fill-rule="evenodd" clip-rule="evenodd" d="M28.9131 28.1279L79.3967 78.6117L79.3632 78.6438L79.3287 78.6749L79.2931 78.7046L79.2564 78.7331L79.2187 78.7603L79.1799 78.7862L79.1401 78.8107L79.0996 78.8338L79.058 78.8554L79.0157 78.8757L78.9725 78.8942L78.9285 78.9113L78.8837 78.9267L78.8382 78.9406L78.7921 78.9529L78.7453 78.9634L28.2617 28.4798L28.3085 28.4693L28.3547 28.457L28.4001 28.4431L28.4449 28.4277L28.4889 28.4106L28.5321 28.3919L28.5744 28.3718L28.616 28.3502L28.6567 28.3271L28.6963 28.3026L28.7351 28.2767L28.7728 28.2495L28.8094 28.221L28.8451 28.1913L28.8796 28.1602L28.9131 28.1279Z" fill="#FF947A"/>
<path fill-rule="evenodd" clip-rule="evenodd" d="M27.2269 29.627L77.7104 80.1107L77.6379 80.1798L77.5621 80.2455L77.4832 80.3075L77.4013 80.3656L77.3165 80.42L77.2291 80.4703L77.1391 80.5164L77.0465 80.5583L76.9517 80.5956L76.8547 80.6284L76.7556 80.6566L76.6545 80.6799L76.5516 80.6983L76.4472 80.7116L76.3411 80.7196L76.2336 80.7224L25.75 30.2388L25.8575 30.236L25.9636 30.228L26.0681 30.2147L26.1709 30.1963L26.272 30.173L26.3711 30.1448L26.4681 30.112L26.5629 30.0746L26.6555 30.0328L26.7455 29.9867L26.8331 29.9363L26.9177 29.882L26.9996 29.8238L27.0785 29.7618L27.1543 29.6962L27.2269 29.627Z" fill="#FF947A"/>
<path fill-rule="evenodd" clip-rule="evenodd" d="M23.2417 28.5054L73.7253 78.989H67.2414L16.7578 28.5054H23.2417Z" fill="#FF947A"/>
<path fill-rule="evenodd" clip-rule="evenodd" d="M25.7502 30.2388L76.2338 80.7224L76.1264 80.7196L76.0204 80.7116L75.9158 80.6983L75.813 80.6799L75.712 80.6566L75.6128 80.6284L75.5158 80.5956L75.421 80.5583L75.3284 80.5164L75.2384 80.4703L75.1509 80.42L75.0661 80.3656L74.9842 80.3075L74.9054 80.2455L74.8296 80.1798L74.757 80.1107L24.2734 29.627L24.346 29.6962L24.4218 29.7618L24.5008 29.8238L24.5826 29.882L24.6673 29.9363L24.7548 29.9867L24.8449 30.0328L24.9374 30.0746L25.0322 30.112L25.1293 30.1448L25.2284 30.173L25.3294 30.1963L25.4322 30.2147L25.5368 30.228L25.6428 30.236L25.7502 30.2388Z" fill="#FF947A"/>
<path fill-rule="evenodd" clip-rule="evenodd" d="M29.6191 20.2292C30.0853 20.2292 30.5324 20.4145 30.862 20.7441C31.1917 21.0738 31.3768 21.5209 31.3768 21.9871C31.3768 22.4533 31.1916 22.9004 30.8619 23.23C30.5323 23.5597 30.0852 23.7448 29.619 23.7448H10.379C10.1481 23.7448 9.91954 23.6994 9.70627 23.6111C9.493 23.5227 9.29922 23.3933 9.13599 23.23C8.97275 23.0668 8.84327 22.873 8.75492 22.6598C8.66658 22.4465 8.6211 22.2179 8.62109 21.9871C8.62108 21.7563 8.66654 21.5277 8.75487 21.3144C8.8432 21.1011 8.97267 20.9074 9.13589 20.7441C9.46553 20.4145 9.91263 20.2292 10.3788 20.2292H29.6188H29.6191ZM10.7084 24.1892H29.2899V27.2186C29.2891 27.5149 29.1864 27.802 28.999 28.0317C28.8116 28.2613 28.5509 28.4194 28.2607 28.4796C28.3076 28.1212 28.2772 27.7569 28.1716 27.4112C28.0659 27.0654 27.8876 26.7463 27.6484 26.4753C27.4092 26.2042 27.1148 25.9875 26.7849 25.8397C26.455 25.6918 26.0973 25.6163 25.7359 25.6182C25.3744 25.6201 25.0175 25.6993 24.6892 25.8506C24.3608 26.0018 24.0687 26.2216 23.8324 26.4951C23.596 26.7687 23.421 27.0896 23.319 27.4364C23.217 27.7832 23.1904 28.1478 23.241 28.5058H16.7571C16.8078 28.1478 16.7813 27.7831 16.6793 27.4362C16.5774 27.0893 16.4023 26.7683 16.166 26.4947C15.9296 26.221 15.6375 26.0012 15.3091 25.8499C14.9807 25.6986 14.6238 25.6193 14.2622 25.6174C13.9006 25.6155 13.5429 25.6911 13.2129 25.839C12.883 25.9868 12.5885 26.2036 12.3494 26.4748C12.1102 26.7459 11.9318 27.0651 11.8263 27.4109C11.7207 27.7567 11.6904 28.1211 11.7374 28.4796C11.4472 28.4194 11.1865 28.2613 10.9991 28.0317C10.8117 27.802 10.709 27.5149 10.7082 27.2186V24.1892H10.7084ZM27.8378 28.1502C27.8378 28.6334 27.6702 29.1016 27.3637 29.4752C27.0572 29.8487 26.6306 30.1044 26.1567 30.1987C25.6828 30.2929 25.1908 30.22 24.7646 29.9922C24.3385 29.7644 24.0045 29.3959 23.8196 28.9495C23.6347 28.5031 23.6103 28.0064 23.7505 27.544C23.8908 27.0815 24.187 26.6821 24.5888 26.4136C24.9906 26.1452 25.473 26.0243 25.9539 26.0717C26.4348 26.119 26.8843 26.3317 27.226 26.6734C27.4202 26.8671 27.5743 27.0973 27.6792 27.3507C27.7842 27.6042 27.8381 27.8758 27.8378 28.1502ZM10.3791 9.76123H29.6191C30.0853 9.76123 30.5324 9.94643 30.862 10.2761C31.1917 10.6057 31.3769 11.0528 31.3769 11.519C31.3769 11.9852 31.1917 12.4323 30.862 12.762C30.5324 13.0916 30.0853 13.2768 29.6191 13.2768H10.3791C9.9129 13.2768 9.46579 13.0916 9.13614 12.762C8.80649 12.4323 8.62129 11.9852 8.62129 11.519C8.62129 11.0528 8.80649 10.6057 9.13614 10.2761C9.46579 9.94643 9.9129 9.76123 10.3791 9.76123ZM29.6486 13.7211V14.0346C29.6467 14.7498 29.3618 15.4353 28.856 15.941C28.3502 16.4468 27.6648 16.7317 26.9495 16.7335H26.908C26.5537 16.7334 26.2029 16.6633 25.8758 16.5273C25.5487 16.3913 25.2516 16.1921 25.0016 15.941C24.8314 15.7707 24.6844 15.5787 24.5646 15.3699C24.4448 15.5787 24.2978 15.7708 24.1275 15.941C23.8775 16.1921 23.5804 16.3913 23.2533 16.5273C22.9261 16.6634 22.5753 16.7334 22.221 16.7335H22.1795C21.8252 16.7334 21.4744 16.6633 21.1473 16.5273C20.8201 16.3913 20.523 16.1921 20.2731 15.941C20.1028 15.7707 19.9559 15.5787 19.836 15.3699C19.7162 15.5787 19.5693 15.7708 19.399 15.941C19.149 16.1921 18.8519 16.3913 18.5247 16.5273C18.1976 16.6634 17.8467 16.7334 17.4924 16.7335H17.451C17.0966 16.7334 16.7458 16.6633 16.4187 16.5273C16.0915 16.3913 15.7944 16.192 15.5444 15.941C15.3742 15.7707 15.2272 15.5787 15.1074 15.3699C14.9876 15.5787 14.8406 15.7708 14.6703 15.941C14.4204 16.1921 14.1233 16.3914 13.7961 16.5274C13.469 16.6634 13.1182 16.7334 12.7639 16.7335H12.7224C12.0072 16.7317 11.3217 16.4468 10.8159 15.941C10.3102 15.4353 10.0252 14.7498 10.0234 14.0346V13.6924C10.1409 13.7117 10.2598 13.7213 10.379 13.7214H29.619L29.6483 13.7211H29.6486ZM25.5786 16.8816C25.9946 17.0769 26.4485 17.1781 26.908 17.1779H26.9495C27.409 17.178 27.863 17.0769 28.279 16.8816V19.7847H25.5786V16.8816ZM24.5667 19.1224V19.7847H21.2444V19.1224C21.2455 18.6822 21.4208 18.2603 21.7321 17.949C22.0435 17.6377 22.4654 17.4624 22.9056 17.4614C23.819 17.4614 24.5668 18.209 24.5668 19.1226L24.5667 19.1224ZM16.3378 28.1502C16.3378 28.6334 16.1702 29.1016 15.8637 29.4752C15.5572 29.8487 15.1306 30.1044 14.6567 30.1987C14.1828 30.2929 13.6908 30.22 13.2647 29.9922C12.8385 29.7644 12.5045 29.3959 12.3196 28.9495C12.1347 28.5031 12.1103 28.0064 12.2505 27.544C12.3908 27.0815 12.687 26.6821 13.0888 26.4136C13.4906 26.1452 13.973 26.0243 14.4539 26.0717C14.9348 26.119 15.3843 26.3317 15.726 26.6734C15.9202 26.8671 16.0743 27.0973 16.1792 27.3507C16.2842 27.6042 16.3381 27.8758 16.3378 28.1502ZM16.7666 17.4612C17.2068 17.4622 17.6287 17.6376 17.94 17.9488C18.2514 18.2601 18.4267 18.6821 18.4278 19.1223V19.7846H15.1055V19.1223C15.1055 18.209 15.8531 17.4611 16.7667 17.4611L16.7666 17.4612ZM11.3931 16.8816C11.8091 17.0769 12.263 17.178 12.7226 17.1779H12.764C13.2236 17.178 13.6775 17.0769 14.0935 16.8816V19.7847H11.3931V16.8816Z" fill="#FF947A"/>
</g>
<path d="M10.379 9.76123H29.619C30.0848 9.76238 30.5313 9.94795 30.8607 10.2774C31.1901 10.6068 31.3757 11.0532 31.3768 11.5191C31.3757 11.985 31.1901 12.4314 30.8607 12.7608C30.5313 13.0902 30.0848 13.2757 29.619 13.2768H10.379C9.9131 13.2757 9.46663 13.0902 9.13721 12.7608C8.80778 12.4314 8.62221 11.985 8.62109 11.5191C8.62224 11.0532 8.80781 10.6068 9.13723 10.2774C9.46664 9.94795 9.9131 9.76238 10.379 9.76123Z" fill="#FFFFFE"/>
<path d="M29.6486 13.721V14.0345C29.6468 14.7498 29.3618 15.4352 28.8561 15.941C28.3503 16.4467 27.6648 16.7316 26.9496 16.7334H26.9081C26.5538 16.7333 26.203 16.6633 25.8759 16.5273C25.5487 16.3913 25.2517 16.192 25.0017 15.9409C24.8314 15.7707 24.6845 15.5787 24.5646 15.3698C24.4449 15.5787 24.2979 15.7707 24.1276 15.9409C23.8776 16.192 23.5805 16.3913 23.2533 16.5273C22.9262 16.6633 22.5754 16.7334 22.221 16.7334H22.1796C21.8253 16.7333 21.4745 16.6633 21.1473 16.5273C20.8202 16.3913 20.5231 16.192 20.2732 15.9409C20.1029 15.7707 19.9559 15.5787 19.8361 15.3698C19.7163 15.5787 19.5693 15.7707 19.399 15.9409C19.1491 16.192 18.852 16.3913 18.5248 16.5273C18.1976 16.6633 17.8468 16.7334 17.4925 16.7334H17.451C17.0967 16.7333 16.7459 16.6633 16.4188 16.5273C16.0916 16.3913 15.7945 16.192 15.5445 15.9409C15.3742 15.7707 15.2273 15.5787 15.1074 15.3698C14.9876 15.5787 14.8407 15.7707 14.6704 15.9409C14.4204 16.192 14.1234 16.3913 13.7962 16.5273C13.4691 16.6633 13.1183 16.7334 12.764 16.7334H12.7225C12.0072 16.7316 11.3218 16.4467 10.816 15.941C10.3102 15.4352 10.0253 14.7498 10.0234 14.0345V13.6924C10.141 13.7116 10.2599 13.7213 10.379 13.7213H29.619L29.6484 13.721H29.6486Z" fill="#FFFFFE"/>
<path d="M10.3791 20.229H29.6191C30.085 20.2301 30.5314 20.4157 30.8608 20.7451C31.1902 21.0745 31.3757 21.521 31.3768 21.9869V21.987C31.3757 22.4529 31.1901 22.8993 30.8607 23.2287C30.5313 23.5581 30.0848 23.7437 29.619 23.7447H10.379C9.9131 23.7437 9.46663 23.5581 9.13721 23.2287C8.80778 22.8993 8.62221 22.4529 8.62109 21.987V21.9869C8.62218 21.521 8.80771 21.0745 9.13711 20.7451C9.46651 20.4157 9.91297 20.2301 10.3788 20.229H10.3791Z" fill="#FFFFFE"/>
<path d="M11.3945 16.8818V19.7849H14.0949V16.8818C13.6789 17.0771 13.225 17.1783 12.7655 17.1781H12.724C12.2645 17.1783 11.8105 17.0771 11.3945 16.8818Z" fill="#FFFFFE"/>
<path d="M25.5781 16.8818V19.7849H28.2785V16.8818C27.8625 17.0771 27.4086 17.1783 26.9491 17.1781H26.9076C26.448 17.1783 25.9941 17.0771 25.5781 16.8818Z" fill="#FFFFFE"/>
<path d="M29.2927 24.189V27.2183C29.2919 27.5147 29.1892 27.8018 29.0018 28.0314C28.8144 28.261 28.5537 28.4192 28.2635 28.4794C28.3103 28.1209 28.28 27.7566 28.1743 27.4109C28.0687 27.0652 27.8903 26.7461 27.6512 26.475C27.412 26.204 27.1176 25.9872 26.7877 25.8394C26.4578 25.6916 26.1001 25.6161 25.7386 25.6179C25.3772 25.6198 25.0203 25.6991 24.6919 25.8503C24.3636 26.0016 24.0715 26.2213 23.8351 26.4949C23.5988 26.7684 23.4237 27.0894 23.3217 27.4362C23.2197 27.783 23.1931 28.1476 23.2437 28.5055H16.7599C16.8106 28.1475 16.7841 27.7828 16.6821 27.4359C16.5801 27.089 16.4051 26.768 16.1688 26.4944C15.9324 26.2208 15.6402 26.0009 15.3119 25.8496C14.9835 25.6983 14.6265 25.619 14.265 25.6172C13.9034 25.6153 13.5456 25.6908 13.2157 25.8387C12.8858 25.9866 12.5913 26.2034 12.3521 26.4745C12.113 26.7457 11.9346 27.0649 11.829 27.4107C11.7235 27.7565 11.6932 28.1209 11.7401 28.4794C11.4499 28.4192 11.1893 28.261 11.0019 28.0314C10.8145 27.8018 10.7117 27.5147 10.7109 27.2183V24.189H29.2924H29.2927ZM20.3576 25.3195C20.3576 25.2252 20.3201 25.1347 20.2535 25.0681C20.1868 25.0014 20.0963 24.9639 20.002 24.9639C19.9077 24.9639 19.8172 25.0014 19.7506 25.0681C19.6839 25.1347 19.6464 25.2252 19.6464 25.3195V27.3751C19.6464 27.4694 19.6839 27.5599 19.7506 27.6265C19.8172 27.6932 19.9077 27.7307 20.002 27.7307C20.0963 27.7307 20.1868 27.6932 20.2535 27.6265C20.3201 27.5599 20.3576 27.4694 20.3576 27.3751V25.3195ZM21.6096 25.8056C21.6096 25.7113 21.5721 25.6209 21.5055 25.5542C21.4388 25.4875 21.3483 25.45 21.254 25.45C21.1597 25.45 21.0692 25.4875 21.0026 25.5542C20.9359 25.6209 20.8984 25.7113 20.8984 25.8056V26.889C20.8984 26.9357 20.9076 26.9819 20.9255 27.025C20.9433 27.0682 20.9695 27.1074 21.0026 27.1404C21.0356 27.1734 21.0748 27.1996 21.1179 27.2175C21.1611 27.2354 21.2073 27.2446 21.254 27.2446C21.3007 27.2446 21.3469 27.2354 21.3901 27.2175C21.4332 27.1996 21.4724 27.1734 21.5055 27.1404C21.5385 27.1074 21.5647 27.0682 21.5825 27.025C21.6004 26.9819 21.6096 26.9357 21.6096 26.889V25.8056ZM19.1056 25.8056C19.1056 25.7113 19.0681 25.6209 19.0015 25.5542C18.9348 25.4875 18.8443 25.45 18.75 25.45C18.6557 25.45 18.5652 25.4875 18.4986 25.5542C18.4319 25.6209 18.3944 25.7113 18.3944 25.8056V26.889C18.3944 26.9833 18.4319 27.0737 18.4986 27.1404C18.5652 27.2071 18.6557 27.2446 18.75 27.2446C18.8443 27.2446 18.9348 27.2071 19.0015 27.1404C19.0681 27.0737 19.1056 26.9833 19.1056 26.889V25.8056Z" fill="#FFFFFE"/>
<path d="M25.7487 26.0615C26.2319 26.0615 26.7002 26.229 27.0737 26.5356C27.4472 26.8421 27.7029 27.2687 27.7972 27.7426C27.8915 28.2165 27.8185 28.7085 27.5907 29.1346C27.363 29.5608 26.9945 29.8948 26.548 30.0797C26.1016 30.2646 25.6049 30.289 25.1425 30.1488C24.6801 30.0085 24.2806 29.7122 24.0122 29.3105C23.7437 28.9087 23.6229 28.4263 23.6702 27.9454C23.7176 27.4645 23.9302 27.0149 24.2719 26.6733C24.4656 26.4791 24.6958 26.325 24.9493 26.2201C25.2027 26.1151 25.4744 26.0612 25.7487 26.0615Z" fill="#FFFFFE"/>
<path d="M14.2487 26.0615C14.7319 26.0615 15.2002 26.229 15.5737 26.5356C15.9472 26.8421 16.2029 27.2687 16.2972 27.7426C16.3915 28.2165 16.3185 28.7085 16.0907 29.1346C15.863 29.5608 15.4945 29.8948 15.048 30.0797C14.6016 30.2646 14.1049 30.289 13.6425 30.1488C13.1801 30.0085 12.7806 29.7122 12.5122 29.3105C12.2437 28.9087 12.1229 28.4263 12.1702 27.9454C12.2176 27.4645 12.4302 27.0149 12.7719 26.6733C12.9656 26.4791 13.1958 26.325 13.4493 26.2201C13.7027 26.1151 13.9744 26.0612 14.2487 26.0615Z" fill="#FFFFFE"/>
<path d="M15.1055 19.7849V19.1226C15.1055 18.2093 15.8531 17.4614 16.7667 17.4614C17.2069 17.4624 17.6288 17.6378 17.9402 17.949C18.2515 18.2603 18.4268 18.6822 18.4279 19.1225V19.7848H15.1056L15.1055 19.7849Z" fill="#FFFFFE"/>
<path d="M21.2461 19.7848V19.1225C21.2471 18.6822 21.4225 18.2603 21.7338 17.949C22.0451 17.6378 22.467 17.4624 22.9073 17.4614C23.8206 17.4614 24.5685 18.209 24.5685 19.1226V19.7849H21.2462L21.2461 19.7848Z" fill="#FFFFFE"/>
</g>
<defs>
<clipPath id="clip0_1166_69659">
<rect width="40" height="40" fill="white"/>
</clipPath>
</defs>
</svg>
